<svg width="44" height="51" viewBox="0 0 44 51" fill="none" xmlns="http://www.w3.org/2000/svg">
<g clip-path="url(#clip0_4_7764)">
<path d="M21.9997 0.199265C28.8534 0.199265 35.4491 1.59384 41.6796 4.33317C42.969 9.5126 43.7848 14.8918 43.8066 18.4278C43.8066 18.5274 43.8066 18.5772 43.8066 18.6269C43.8066 22.1132 43.2906 25.5497 42.2808 28.7874C41.2925 31.9745 39.8319 34.9627 37.9198 37.752C36.029 40.4415 33.7087 42.9316 31.0232 45.1232C28.1658 47.4637 24.7927 49.6054 21.9995 50.8011C19.2283 49.6054 15.855 47.4637 12.9978 45.1232C10.3123 42.9316 7.99196 40.4415 6.10105 37.752C4.18889 34.9627 2.7283 31.9745 1.73999 28.7874C0.730254 25.5497 0.214233 22.1132 0.214233 18.6269C0.214233 18.5772 0.214233 18.5274 0.214233 18.4278C0.236364 14.8918 1.05237 9.51278 2.34172 4.33317C8.57226 1.59384 15.1676 0.199265 21.9997 0.199265Z" fill="white"/>
<path d="M21.9998 20.1214C23.5255 20.1214 24.9434 20.5195 26.1894 21.2169H38.8864C38.9081 20.3203 38.8864 19.3244 38.8651 18.4278C38.8005 14.5927 37.662 8.11836 36.5448 3.63578C32.0544 2.19139 27.2206 1.34476 22.0215 1.34476" fill="#DA140A"/>
<path d="M22.0215 1.39456C16.9082 1.39456 12.2246 2.1414 7.47646 3.63577C6.31638 8.26745 5.3495 14.4433 5.19898 17.3821C4.98435 21.715 5.30629 24.8527 6.18728 28.2397C6.68153 30.1817 7.32611 31.9746 8.16408 33.8175C9.0665 33.3694 10.0116 32.7716 10.9565 32.0746C11.945 31.3274 12.8046 30.4306 13.5134 29.5343C13.492 29.1858 13.4708 28.8864 13.4708 28.5379C13.4708 28.0403 13.5134 27.5415 13.5993 27.0941C11.8379 27.1435 10.8494 27.1435 10.0546 27.1435C9.109 27.1435 8.24996 26.4963 7.84161 25.4999C7.62645 25.4999 7.39057 25.4999 7.39057 25.4999C7.06845 25.4999 6.48815 25.2508 6.48815 24.1551C6.48815 23.1094 7.06828 22.8604 7.39057 22.8604C7.39057 22.8604 7.62663 22.8604 7.84161 22.8604C8.24979 21.8643 9.109 21.2169 10.0546 21.2169H17.8531C19.0778 20.5195 20.4957 20.1214 22.0213 20.1214" fill="#EE120B"/>
<path d="M14.2868 43.4796C11.8809 41.1386 9.90427 38.5492 8.33565 35.7599C6.74597 32.9709 5.60714 29.8333 4.94112 26.6956C4.25368 23.4581 4.0387 20.1711 4.27511 16.7344C4.49026 13.4971 5.34948 8.56635 6.42367 3.98448C5.41394 4.33317 4.38242 4.73149 3.37268 5.1798C2.23438 9.66222 1.43927 15.3401 1.41785 18.428C1.41785 21.9143 1.91191 25.251 2.87844 28.389C3.90996 31.7259 5.28467 34.4155 7.11076 37.0552C8.91578 39.6949 11.1715 42.085 13.7709 44.2268C16.1991 46.2189 18.9917 47.9622 21.9995 49.4565C21.9995 49.4565 21.9995 49.4065 21.9995 49.4565C19.121 47.7133 16.521 45.7211 14.2868 43.4796Z" fill="#163A76"/>
<path d="M29.7341 43.4796C32.1403 41.1386 34.1171 38.5492 35.6855 35.7599C37.2754 32.9709 38.4141 29.8333 39.0801 26.6956C39.7675 23.4581 39.9825 20.1711 39.7461 16.7344C39.5309 13.4971 38.6505 8.51653 37.5763 3.98448C38.6074 4.33317 39.639 4.73149 40.6487 5.1798C41.787 9.66222 42.5821 15.3401 42.5821 18.428C42.6035 21.9143 42.1093 25.251 41.121 28.389C40.1759 31.4771 38.758 34.366 36.9104 37.0552C35.0842 39.6949 32.8497 42.085 30.2496 44.2268C27.8221 46.2189 25.0293 47.9622 21.9998 49.4565C24.8788 47.7133 27.5002 45.7211 29.7341 43.4796Z" fill="#163A76"/>
<path d="M21.9998 20.5694C17.5096 20.5694 13.879 24.1552 13.879 28.538C13.879 32.9709 17.5096 36.5565 21.9998 36.5565C26.4899 36.5565 30.121 32.9709 30.121 28.538C30.121 24.1553 26.4899 20.5694 21.9998 20.5694Z" fill="#8D6E26"/>
<path d="M21.9998 36.9552C19.2499 36.9552 16.8008 35.6604 15.2325 33.6679C13.3204 34.7638 11.3223 35.6103 9.38892 36.2082C10.9143 38.7983 12.7831 41.2389 15.0608 43.4797C17.1015 45.5221 19.4218 47.3644 22 49.0081" fill="#EE120B"/>
<path d="M10.0548 26.7452C9.17379 26.7452 8.42172 26.0478 8.12085 25.1016C7.75588 25.1016 7.39073 25.1016 7.39073 25.1016C7.197 25.1016 6.91809 24.8527 6.91809 24.2051C6.91809 23.5079 7.197 23.2587 7.39073 23.2587C7.39073 23.2587 7.75588 23.2587 8.12085 23.2587C8.42172 22.3124 9.17379 21.6151 10.0548 21.6151H17.1445C15.4256 22.8104 14.1582 24.5536 13.6854 26.6454C12.0955 26.6956 10.8928 26.7452 10.0548 26.7452Z" fill="#8D6E26"/>
<path d="M41.8514 4.1339C35.8144 1.4942 29.1759 0 21.9997 0C14.8453 0 8.20663 1.4942 2.16982 4.1339C0.773329 9.71201 0.0214277 15.0909 0 18.4278C0 22.0136 0.494066 25.5001 1.52523 28.837C2.53497 32.0246 4.01752 35.0625 5.92967 37.8022C7.8204 40.5413 10.1622 43.0811 12.8693 45.2723C15.4044 47.3642 18.8636 49.6556 21.9997 50.9998C25.1579 49.6556 28.5958 47.3641 31.152 45.2723C33.8593 43.0811 36.201 40.5412 38.0918 37.8022C40.0039 35.0625 41.4863 32.0246 42.496 28.837C43.5058 25.5001 44.0214 22.0137 44 18.4278C44 15.0909 43.2479 9.71201 41.8514 4.1339ZM36.9102 37.0552C35.1054 39.6447 32.8495 42.085 30.2494 44.2267C27.8219 46.2189 25.0291 47.9621 21.9996 49.4065C18.9918 47.962 16.1993 46.2187 13.771 44.2267C11.1714 42.085 8.91567 39.6447 7.11083 37.0552C6.96049 36.8563 6.81049 36.6067 6.6814 36.4074C9.32403 35.9589 12.2672 34.8634 14.9744 33.3194C14.3084 32.3733 13.8144 31.2778 13.5992 30.0823C12.9119 30.9293 12.1167 31.7259 11.193 32.4233C9.689 33.5187 7.88469 34.6147 5.9295 35.2119C4.64015 33.0707 3.63059 30.7797 2.87851 28.389C1.91198 25.251 1.41792 21.9143 1.41792 18.428C1.43934 15.3401 2.23445 9.6622 3.37275 5.17979C9.25975 2.63971 15.5331 1.39457 21.9997 1.39457C28.4879 1.39457 34.7617 2.63971 40.6487 5.17961C41.787 9.66203 42.5821 15.3399 42.6035 18.4278C42.6035 19.5235 42.5607 20.5694 42.453 21.6152H26.8341C28.7677 22.96 30.1426 25.0021 30.4647 27.3926L33.4513 26.6956C34.1173 26.546 34.3749 26.0978 34.4608 25.6993L41.9375 25.201C41.7223 26.2971 41.4434 27.343 41.1427 28.3889C40.1757 31.4769 38.7578 34.3658 36.9102 37.0552Z" fill="#8D6E26"/>
<path d="M22.5371 30.7795V35.0625C24.5778 34.9135 26.3612 33.8175 27.4785 32.2735L23.6761 30.1323C23.3751 30.4306 22.9881 30.6799 22.5371 30.7795Z" fill="white"/>
<path d="M21.4628 22.0137C19.4215 22.213 17.6386 23.2589 16.5428 24.8527L20.3238 26.9941C20.6248 26.6456 21.0112 26.4463 21.4626 26.3469" fill="white"/>
<path d="M21.9997 27.3926C21.3557 27.3926 20.8182 27.8907 20.8182 28.5379C20.8182 29.1859 21.3557 29.7336 21.9997 29.7336C22.6658 29.7336 23.1816 29.1859 23.1816 28.5379C23.1816 27.8907 22.6658 27.3926 21.9997 27.3926Z" fill="white"/>
<path d="M22.5371 22.0137V26.3469C22.988 26.4463 23.3965 26.6458 23.6972 26.9941L27.4783 24.8527C26.3614 23.2589 24.578 22.213 22.5371 22.0137Z" fill="white"/>
<path d="M21.4628 30.7795C21.0973 30.6799 20.7753 30.5306 20.4957 30.2812C20.453 30.2312 20.3886 30.1816 20.3238 30.1323L16.5428 32.2735C16.6287 32.4231 16.7148 32.5222 16.8221 32.6224C17.9176 34.0169 19.5933 34.9135 21.4628 35.0625" fill="white"/>
<path d="M24.2128 29.186L28.0155 31.3769C28.7456 29.8334 28.9608 27.6915 28.0155 25.7493L24.234 27.8909C24.3419 28.2894 24.3633 28.7373 24.2128 29.186Z" fill="white"/>
<path d="M17.1659 24.7035L20.2594 26.4464C20.4958 26.2973 20.7534 26.1478 21.0331 25.9982V22.5121C19.5075 22.7608 18.1328 23.5081 17.1659 24.7035Z" fill="#8D6E26"/>
<path d="M22.9668 22.5121V26.0479C23.2459 26.1478 23.5037 26.2971 23.7401 26.4464L26.834 24.7035C25.8671 23.5081 24.4919 22.7608 22.9668 22.5121Z" fill="#8D6E26"/>
<path d="M28.1875 27.9402C28.1442 27.3926 28.0155 26.8448 27.8005 26.3467L24.707 28.09C24.7285 28.2396 24.7497 28.3889 24.7497 28.538C24.7497 28.5881 24.7497 28.6877 24.7497 28.7372C25.6095 28.4885 26.5331 28.2892 27.4784 28.09C27.6934 28.0405 27.9512 27.9905 28.1875 27.9402Z" fill="#8D6E26"/>
<path d="M21.9997 49.0079C24.5779 47.3642 26.9196 45.5219 28.9609 43.4796C31.3671 41.1386 33.3437 38.4992 34.8904 35.7106C36.459 32.8713 37.5762 29.7336 38.2424 26.5954C38.2849 26.3467 38.3281 26.0978 38.3708 25.849L34.7831 26.0978C34.5897 26.5954 34.1603 26.9941 33.5582 27.0943C33.5369 27.0943 32.2261 27.4428 30.5077 27.8411C30.5291 28.0403 30.5504 28.2894 30.5504 28.538C30.5504 33.2201 26.7263 36.955 21.9995 36.955" fill="#DA140A"/>
<path d="M22.7516 28.5381C22.7516 28.1396 22.4291 27.7913 21.9997 27.7913C21.5915 27.7913 21.2478 28.1398 21.2478 28.5381C21.2478 28.9869 21.5915 29.2851 21.9997 29.2851C22.4291 29.2851 22.7516 28.9868 22.7516 28.5381Z" fill="#8D6E26"/>
<path d="M22.9668 34.6145C24.492 34.3658 25.8673 33.5686 26.8341 32.4231L23.7403 30.6299C23.5037 30.829 23.2461 30.9787 22.967 31.0784V34.6145" fill="#D40026"/>
<path d="M17.1659 32.4231L20.2594 30.6299C20.4958 30.829 20.7534 30.9787 21.0331 31.0784V34.6145C19.5075 34.3658 18.1328 33.5686 17.1659 32.4231Z" fill="#FE000C"/>
<path d="M28.2301 28.5381C28.2301 28.4886 28.2301 28.389 28.2089 28.3388C27.9937 28.3388 27.7573 28.389 27.5428 28.4392C26.5977 28.6382 25.6951 28.8866 24.8788 29.0858L27.8005 30.7796C28.0798 30.0821 28.2301 29.3351 28.2301 28.5381Z" fill="#D40026"/>
<path d="M15.9844 25.7493C15.1251 27.592 15.1679 29.6341 16.0057 31.3769L19.7872 29.186C19.6582 28.7875 19.6582 28.3388 19.7872 27.8909" fill="white"/>
<path d="M16.2208 30.7795L19.293 28.9868C19.2498 28.6878 19.2498 28.3889 19.293 28.09L16.1993 26.3469C15.6406 27.7911 15.6406 29.3351 16.2208 30.7795Z" fill="#8D6E26"/>
<path d="M25.0932 14.842C25.0932 15.0413 25.0507 15.5888 25.0293 15.7385H27.5002C27.3496 15.0911 27.285 14.1944 27.2636 13.4972C27.2636 13.5471 27.2206 12.1027 27.2206 12.1027C27.2206 12.0031 27.2636 11.8538 27.3277 11.8038C27.4136 11.7044 27.5 11.7043 27.6073 11.7043C27.7146 11.6547 27.9078 11.6547 27.9298 12.053L27.9937 13.5472C28.0155 14.2443 28.0155 15.1909 27.9298 15.7386H30.314C30.2928 15.5396 30.2282 15.0416 30.2069 14.892C30.5078 15.5394 31.152 15.8879 32.0116 15.8879C32.5272 15.8879 32.9142 15.6888 33.2145 15.4894C33.2145 15.5394 33.3436 15.7385 33.3436 15.7385H37.7693C37.5759 15.0911 37.447 14.1944 37.3824 13.4972L36.7596 8.61634L34.4819 8.21784C34.6756 8.8654 34.8042 9.81166 34.8901 10.4592L35.2338 13.5969C35.2984 14.1448 35.3415 14.7424 35.3415 15.3899V15.4396L35.2556 15.2407C35.0836 14.842 34.9978 14.3437 34.9333 13.5969L34.8474 12.6006C34.7183 11.0068 33.8377 10.3098 31.9037 10.3098C31.5813 10.3098 30.7654 10.3596 30.2712 10.509L30.3998 12.3018L30.9154 12.0027C31.3454 11.754 31.6679 11.6544 32.0541 11.6544C32.3551 11.6544 32.5483 11.754 32.6344 11.9531C32.2692 12.0027 31.8611 12.1023 31.4095 12.3018C30.722 12.6006 30.2926 13.0488 30.0992 13.5469C30.0992 13.5469 30.0992 13.5469 30.0992 13.4971L30.0348 11.8534C29.9916 10.8076 29.3041 10.1104 28.2514 10.1104C27.7791 10.1104 27.3493 10.2598 26.9625 10.509C26.9411 10.4592 26.9193 10.4094 26.8979 10.3596L26.812 10.1603L24.8354 10.0607C24.9213 10.4096 25.0506 11.4055 25.0718 11.7543C24.9647 11.2562 24.6854 10.7081 24.1694 10.3098C23.761 10.0607 23.2455 9.91128 22.7088 9.91128C21.9783 9.91128 21.2264 10.2102 20.7322 10.7079C20.2165 11.2061 19.9589 11.9031 19.9369 12.7003C19.7439 12.5012 19.4862 12.3018 19.1855 12.2021L18.2831 11.7542H18.2401C18.0253 11.6545 18.0035 11.6047 18.0035 11.5549C18.0253 11.4553 18.2401 11.3557 18.5195 11.3557C18.9057 11.3557 19.4428 11.5549 19.8728 11.8038L19.9155 10.2102C19.5932 10.0607 19.1423 9.96109 18.4977 9.96109C18.154 9.96109 17.5092 10.0111 16.9509 10.31C16.8006 10.4096 16.6713 10.5092 16.5427 10.609L16.5641 10.1605C16.0485 10.0609 15.4899 10.0609 14.8025 10.7083C14.7806 10.6585 14.738 10.4096 14.6954 10.31L12.5682 10.4096C12.7186 11.007 12.7402 11.8538 12.6968 12.6008L12.6541 13.3978V13.4972C12.6327 13.8959 12.6109 14.3439 12.5682 14.7424C12.3963 14.1944 12.2033 13.4474 12.0526 12.85L10.9996 8.1682L7.99201 8.61634C8.01344 8.66632 8.05647 8.81576 8.0779 8.96502C8.09933 9.16427 8.09933 9.5626 7.82006 10.4096C7.32582 11.7543 6.63856 13.7963 5.97254 15.2408C5.88666 15.4398 5.71436 15.7386 5.71436 15.7386H8.05647C8.09933 15.3901 8.24985 14.7924 8.40019 14.3441C8.72249 14.3441 9.56027 14.3441 9.94685 14.2944C10.0327 14.6431 10.1188 15.0912 10.1406 15.3903L10.1833 15.7388H14.8673C14.7595 14.992 14.8027 13.9959 14.8454 13.4478C14.8886 12.8004 15.0173 12.3521 15.2967 12.103C15.5114 11.8541 15.7478 11.8041 15.9197 11.8041C15.8983 12.7008 16.4784 13.0991 16.9939 13.3482L17.9176 13.7966C18.2401 13.9959 18.2401 14.0455 18.2401 14.1453C18.2186 14.2946 17.9608 14.3442 17.7244 14.3442C17.2303 14.3442 16.5643 14.0455 15.8337 13.2485L15.7908 15.3406C16.3709 15.6393 17.1011 15.7888 17.7457 15.7888C18.8198 15.7888 19.9589 15.2908 20.2594 14.3442C20.7968 15.3406 21.8496 15.7888 22.8807 15.7888C23.8046 15.7883 24.4919 15.4892 25.0932 14.842ZM8.95872 12.7999C9.08781 12.4512 9.19513 12.1525 9.38868 11.6047C9.51742 12.1525 9.58205 12.5012 9.64651 12.7502C9.38868 12.7999 9.25976 12.7999 8.95872 12.7999ZM22.1074 12.2519C22.1074 11.5549 22.3652 11.256 22.6231 11.256C22.709 11.256 22.9022 11.2061 22.9881 11.5549C23.0313 11.7042 23.0527 11.8036 23.0527 11.8536C23.0527 12.0529 22.9454 12.1025 22.8161 12.1025V12.1525C22.8161 12.1525 22.4511 12.2519 22.1074 12.4014C22.1074 12.3517 22.1074 12.3018 22.1074 12.2519ZM24.5565 13.6965C24.1055 14.0952 23.7832 14.3437 23.2457 14.3437C22.8161 14.2941 22.5583 14.045 22.4079 13.6965C22.8591 13.5471 24.5995 12.8997 25.0931 12.7003C25.0931 13.0987 25.115 13.5471 25.115 13.5471C25.115 13.8459 25.115 14.1448 25.115 14.3937L24.5565 13.6965ZM32.5699 14.3935C32.1621 14.3935 32.0759 14.095 32.0543 13.8957C32.0757 13.6965 32.1401 13.3976 32.7849 13.1984C32.8063 13.4473 32.8281 13.6467 32.8281 13.6467V13.8458C32.8494 13.9954 32.8494 14.1448 32.8708 14.2941C32.7851 14.3437 32.6778 14.3437 32.5699 14.3935Z" fill="#8D6E26"/>
<path d="M19.5506 10.4592C19.3354 10.4094 19.0131 10.3097 18.4978 10.3097C18.0895 10.3097 17.5525 10.4094 17.1444 10.6088C16.6716 10.9075 16.3278 11.3058 16.3064 11.7543C16.2632 12.4513 16.6287 12.7504 17.1658 12.9993C17.5313 13.1983 17.8748 13.3978 18.0895 13.4972C18.3691 13.6466 18.6269 13.7963 18.605 14.1448C18.5839 14.4933 18.2614 14.7423 17.7245 14.7423C17.2729 14.7423 16.6289 14.4433 16.1773 14.0451L16.1559 15.091C16.5428 15.2903 17.1658 15.3901 17.7457 15.3901C18.7341 15.3901 19.959 14.9418 19.9804 13.8459C20.0016 12.9993 19.4002 12.7004 19.0351 12.5013C18.6696 12.3519 18.3046 12.1526 18.1327 12.1026C17.9607 12.003 17.617 11.9034 17.6386 11.5052C17.6813 11.1565 18.0895 11.0069 18.5198 11.0069C18.8848 11.0069 19.2497 11.1066 19.5293 11.2562" fill="white"/>
<path d="M10.7207 8.61613L8.44307 8.91518C8.48628 9.21405 8.40039 9.81163 8.16398 10.509C7.69117 11.8534 6.91784 14.095 6.31628 15.3899H7.7342C7.82009 14.9416 7.92758 14.5431 8.14238 13.9953L10.2477 13.9454C10.3336 14.3437 10.4841 14.9914 10.5056 15.3899H12.4176C12.1811 14.842 11.8806 13.6965 11.6871 12.8996L10.7207 8.61613ZM8.44307 13.1484L9.47459 10.2101L10.0974 13.0987" fill="white"/>
<path d="M16.1774 10.4592L16.1347 11.4553C15.791 11.4055 15.3614 11.5051 15.0173 11.8536C14.7168 12.1526 14.5232 12.6006 14.4804 13.3978C14.4372 14.0452 14.4159 14.7923 14.4589 15.3901H12.8473C12.9546 14.7923 12.9978 14.0953 13.0192 13.4476L13.0624 12.6509C13.1051 12.0032 13.1051 11.356 12.998 10.7582L14.4159 10.7084C14.4804 10.9077 14.523 11.2565 14.5018 11.6052C15.1249 10.6583 15.7265 10.4592 16.1774 10.4592Z" fill="white"/>
<path d="M36.4374 8.9152L34.9763 8.66614C35.1268 9.3137 35.17 9.76166 35.2559 10.4094L35.5997 13.5471C35.6643 14.1944 35.7282 14.7922 35.7068 15.3899H37.2967C37.1467 14.7922 37.082 14.1944 37.0176 13.5471" fill="white"/>
<path d="M29.8846 15.3899C29.7987 14.7922 29.7559 14.1944 29.7341 13.547L29.67 11.9032C29.627 11.0068 29.1113 10.509 28.2517 10.509C27.7794 10.509 27.2207 10.6581 26.7478 11.256C26.7263 11.1064 26.6619 10.7079 26.5758 10.509L25.287 10.4592C25.3941 11.0568 25.4373 11.6545 25.4589 12.3017L25.4802 13.5469C25.5016 14.1943 25.4802 14.792 25.4375 15.3897H27.0488C26.9629 14.792 26.9197 14.1943 26.8983 13.5469L26.8556 12.1523C26.8342 11.6543 27.2207 11.3055 27.6075 11.3055C28.0584 11.3055 28.2735 11.6045 28.2949 12.0525L28.3594 13.5467C28.3808 14.1941 28.3808 14.7918 28.338 15.3896" fill="white"/>
<path d="M34.9119 15.3899C34.7182 14.8918 34.6111 14.2941 34.5679 13.6467L34.482 12.6506C34.3961 11.4553 33.8806 10.6581 31.9038 10.6581C31.5603 10.6581 31.0658 10.7079 30.6577 10.8075L30.7221 11.7042C31.1305 11.4553 31.5387 11.256 32.0542 11.256C32.5916 11.256 33.0425 11.5049 33.0858 12.2519C32.5698 12.3017 32.0974 12.4014 31.5601 12.6506C30.9585 12.8995 30.3357 13.3976 30.3998 14.1944C30.4643 15.0911 31.1517 15.4892 32.0115 15.4892C32.6775 15.4892 33.1283 15.1905 33.3862 14.8918C33.4294 15.0909 33.4938 15.2407 33.5581 15.3899H34.9119ZM32.5698 14.7424C32.0975 14.7424 31.7104 14.4933 31.6892 13.9455C31.6892 13.3978 32.0329 12.9495 33.1283 12.8L33.193 13.6468C33.2142 13.9457 33.2142 14.145 33.2574 14.3937C33.1073 14.5929 32.8494 14.6926 32.5698 14.7424Z" fill="white"/>
<path d="M23.9551 10.6086C23.5896 10.3596 23.16 10.2598 22.709 10.2598C21.656 10.2598 20.2595 11.0066 20.3027 12.8995C20.324 14.8418 21.828 15.4396 22.8809 15.4396C23.8048 15.4396 24.3633 15.0909 24.8145 14.6427L24.492 14.1944C24.2556 14.3935 23.8692 14.6925 23.2459 14.6925C22.5799 14.6427 22.1504 14.1944 21.9139 13.4972L24.8358 12.4513C24.7497 11.5051 24.406 10.9571 23.9551 10.6086ZM22.9454 12.4513L21.7853 12.8996C21.7635 12.7004 21.7421 12.5011 21.7421 12.2521C21.7421 11.1066 22.3868 10.9075 22.6013 10.9075C22.9455 10.8577 23.2461 11.0569 23.3537 11.4554C23.4823 11.9032 23.4394 12.3017 22.9454 12.4513Z" fill="white"/>
</g>
<defs>
<clipPath id="clip0_4_7764">
<rect width="44" height="51" fill="white"/>
</clipPath>
</defs>
</svg>
