<svg width="48" height="48" viewBox="0 0 48 48" fill="none" xmlns="http://www.w3.org/2000/svg">
<g clip-path="url(#clip0_4_7819)">
<path d="M48 23.9999C48 37.2557 37.2543 48 23.9999 48C10.7449 48 0 37.2557 0 23.9999C0 10.7455 10.7449 0 23.9999 0C37.2543 0 48 10.7455 48 23.9999Z" fill="#DBA111"/>
<path d="M47.1993 24C47.1993 36.813 36.813 47.1994 23.9999 47.1994C11.1867 47.1994 0.800171 36.8131 0.800171 24C0.800171 11.1868 11.1867 0.800278 23.9999 0.800278C36.8128 0.800278 47.1993 11.1868 47.1993 24Z" fill="#034694"/>
<path d="M40.5326 24C40.5326 33.1308 33.1306 40.5316 23.9999 40.5316C14.8686 40.5316 7.46643 33.1308 7.46643 24C7.46643 14.8683 14.8686 7.46652 23.9999 7.46652C33.1308 7.46642 40.5326 14.8683 40.5326 24Z" fill="#DBA111"/>
<path d="M40.0325 23.9999C40.0325 32.8545 32.8534 40.0323 24 40.0323C15.1454 40.0323 7.96753 32.8544 7.96753 23.9999C7.96753 15.1455 15.1454 7.96735 24 7.96735C32.8536 7.96735 40.0325 15.1454 40.0325 23.9999Z" fill="white"/>
<path d="M10.2625 37.8315C10.4399 38.0008 10.8763 38.4165 10.8763 38.4165L11.2947 37.976L10.0468 36.7863L9.88622 36.9547L8.21069 38.7112L8.84685 39.3167C8.84685 39.3167 9.38416 38.7532 9.58076 38.5479C9.74505 38.7039 10.1393 39.0798 10.1393 39.0798L10.5579 38.6402C10.5579 38.6402 10.1643 38.2647 10.0002 38.1076C10.1043 37.9978 10.1572 37.9423 10.2625 37.8315Z" fill="#DBA111"/>
<path d="M13.272 39.8375C13.2155 39.5006 13.0264 39.2031 12.7402 38.9997C12.4554 38.7973 12.1134 38.7175 11.7766 38.7727C11.4138 38.8344 11.0878 39.0458 10.8582 39.3672C10.6294 39.6906 10.537 40.0675 10.5986 40.4318C10.6552 40.7676 10.843 41.0633 11.1283 41.2667C11.4138 41.4696 11.7582 41.5508 12.0946 41.4943C12.4572 41.4332 12.7833 41.2213 13.0122 40.899C13.1953 40.6434 13.2909 40.3507 13.2909 40.058C13.291 39.9851 13.2848 39.9102 13.272 39.8375H13.272ZM11.48 40.7705C11.1884 40.5642 11.4291 40.133 11.599 39.8959C11.7684 39.6569 12.0969 39.2873 12.3885 39.4934C12.6929 39.7111 12.4085 40.1814 12.272 40.3724C12.1351 40.5655 11.785 40.9882 11.48 40.7705Z" fill="#DBA111"/>
<path d="M15.2333 40.5036C14.5618 40.1638 13.7851 40.4423 13.4283 41.1494C13.2496 41.5028 13.2147 41.8908 13.3298 42.2399C13.4361 42.5643 13.6666 42.829 13.9792 42.9862C14.2917 43.1453 14.6434 43.173 14.9684 43.0663C15.3173 42.9525 15.6083 42.6947 15.786 42.3414C16.1442 41.6331 15.9061 40.8434 15.2333 40.5036ZM14.4906 42.4686C14.4119 42.4944 14.3371 42.4863 14.2523 42.4441C14.1191 42.3763 14.0723 42.255 14.0723 42.1195C14.0723 41.932 14.1624 41.711 14.2389 41.5604C14.3714 41.2984 14.6404 40.8847 14.9596 41.0458C15.0438 41.0888 15.0942 41.1446 15.1197 41.2225C15.1731 41.3837 15.1195 41.6483 14.9755 41.9317C14.8323 42.2151 14.6512 42.4155 14.4906 42.4686Z" fill="#DBA111"/>
<path d="M16.6202 41.476L16.4966 41.8302C16.4966 41.8302 16.8126 41.9411 16.9086 41.9728C16.7876 42.3187 16.23 43.9103 16.23 43.9103L17.0579 44.2006C17.0579 44.2006 17.6164 42.6104 17.7371 42.2645C17.8336 42.2982 18.1498 42.4081 18.1498 42.4081L18.3504 41.8363L16.6971 41.2563L16.6202 41.476Z" fill="#DBA111"/>
<path d="M20.0576 42.2441L18.9388 42.0078L18.8909 42.2354L18.3909 44.61L19.5295 44.8514C19.8934 44.9265 20.133 44.8372 20.2697 44.7488C20.4432 44.6356 20.5647 44.45 20.6115 44.2282C20.6243 44.1678 20.6305 44.1092 20.6305 44.0519C20.6305 43.8915 20.5797 43.7469 20.4878 43.6227C20.616 43.5209 20.7075 43.3771 20.7456 43.1977C20.7553 43.1513 20.761 43.099 20.761 43.0444C20.761 42.7405 20.5875 42.3545 20.0576 42.2441H20.0576ZM19.7496 44.0569C19.7377 44.1111 19.7159 44.1829 19.6748 44.2098C19.6368 44.2344 19.5638 44.2376 19.4693 44.2171C19.4693 44.2171 19.4263 44.2076 19.3754 44.1976C19.4118 44.0262 19.4361 43.9122 19.4715 43.7406C19.5202 43.752 19.5824 43.7643 19.5824 43.7643C19.7292 43.7953 19.7574 43.9039 19.7574 43.9828C19.7575 44.0145 19.7535 44.0413 19.7496 44.0569L19.7496 44.0569ZM19.6732 42.786C19.7714 42.8083 19.8436 42.8444 19.8714 42.8864C19.8841 42.9057 19.8904 42.9327 19.8904 42.9646C19.8904 42.9839 19.8878 43.0062 19.8827 43.0331C19.8677 43.1027 19.8473 43.1992 19.6537 43.1595C19.6537 43.1595 19.6296 43.1532 19.5963 43.1461C19.6272 43.0024 19.6419 42.9306 19.6732 42.786L19.6732 42.786Z" fill="#DBA111"/>
<path d="M22.1232 42.6308L20.908 45.1194L21.602 45.1726C21.602 45.1726 21.7898 44.7762 21.8648 44.6183C22.0116 44.6305 22.1588 44.6408 22.3027 44.6524C22.3565 44.8186 22.4921 45.2405 22.4921 45.2405L23.4154 45.3123L22.3838 42.1143L22.1232 42.6308Z" fill="#DBA111"/>
<path d="M24.8634 44.6172C24.848 44.2535 24.7781 42.5978 24.7781 42.5978L23.9012 42.6347L24.0121 45.2918L25.7694 45.2188L25.7431 44.5812C25.7431 44.5813 25.1154 44.6081 24.8634 44.6172Z" fill="#DBA111"/>
<path d="M27.2687 44.3626C27.2122 44.0031 26.9556 42.3662 26.9556 42.3662L26.7257 42.4031L26.0878 42.5024L26.4996 45.1306L28.2379 44.8576L28.1383 44.2271C28.1383 44.2271 27.5182 44.325 27.2687 44.3626Z" fill="#DBA111"/>
<path d="M32.3011 42.5949C32.294 42.8227 32.1597 43.0189 31.9502 43.1018C31.8341 43.148 31.7232 43.148 31.6121 43.1009C31.4417 43.0279 31.2837 42.8433 31.1889 42.6061C31.0773 42.3263 31.0546 42.0886 31.1278 41.9216C31.1781 41.8047 31.2768 41.7173 31.4274 41.6569C31.5907 41.592 31.7457 41.6518 31.9582 41.7769L32.1531 41.8919L32.4767 41.3815L32.2846 41.2552C31.9316 41.0233 31.4946 40.9759 31.1165 41.127C30.7656 41.2668 30.4936 41.5286 30.3498 41.8632C30.2039 42.2026 30.2039 42.591 30.3518 42.9593C30.6311 43.6575 31.4204 44.0014 32.1105 43.7251C32.6092 43.5259 32.8914 43.1471 32.9274 42.6295L32.9438 42.3986L32.3085 42.3514L32.301 42.595" fill="#DBA111"/>
<path d="M34.3481 41.8691C34.1685 41.5498 33.3614 40.1022 33.3614 40.1022L33.1593 40.2162L32.5946 40.5316L33.8924 42.8534L35.4267 41.9963L35.1161 41.4389C35.1162 41.4389 34.567 41.7451 34.3481 41.8691Z" fill="#DBA111"/>
<path d="M36.0546 38.2881L35.8665 38.4257L35.5369 38.668L36.614 40.136C36.6632 40.2024 36.6632 40.2469 36.6589 40.2727C36.6486 40.3485 36.5697 40.4305 36.4999 40.4808C36.467 40.5043 36.3909 40.5363 36.3129 40.5241C36.2573 40.516 36.2134 40.4858 36.1743 40.433L35.1099 38.9814L34.4005 39.5007L35.4598 40.945C35.617 41.1588 35.8122 41.2852 36.04 41.32C36.2956 41.3599 36.5861 41.2728 36.8561 41.0733C37.4115 40.6672 37.4024 40.128 37.16 39.7976L36.0546 38.2881Z" fill="#DBA111"/>
<path d="M39.2863 37.7545C39.123 37.5851 38.9217 37.5089 38.7102 37.5204C38.6978 37.3561 38.6341 37.1991 38.507 37.0677C38.2852 36.8386 37.7892 36.6602 37.3326 37.1047L36.5111 37.8991L38.362 39.81L39.1976 39C39.4647 38.7413 39.5235 38.4907 39.526 38.3288C39.5305 38.121 39.445 37.9176 39.2863 37.7545ZM37.888 37.6901C37.9155 37.7195 37.9492 37.7538 37.9492 37.8016C37.9492 37.8407 37.9279 37.8891 37.8638 37.9504C37.8638 37.9504 37.8464 37.968 37.823 37.9915C37.7193 37.884 37.6701 37.8335 37.565 37.7254C37.7503 37.5555 37.8273 37.6281 37.888 37.6901ZM38.3262 38.3479C38.4762 38.2031 38.6206 38.3304 38.6618 38.3736C38.7017 38.4136 38.7471 38.47 38.7471 38.5189C38.7471 38.5189 38.7471 38.5189 38.7471 38.5205C38.7462 38.5656 38.708 38.6282 38.6392 38.6949C38.6392 38.6949 38.6073 38.7259 38.5695 38.7615C38.4484 38.6363 38.3665 38.5523 38.2452 38.4278C38.2811 38.3922 38.3262 38.3479 38.3262 38.3479V38.3479Z" fill="#DBA111"/>
<path d="M10.2568 37.585C10.3292 37.6547 10.8696 38.1702 10.8696 38.1702L11.0478 37.9823L10.0521 37.0327L10.012 37.0747L8.45776 38.7051L8.84067 39.0705C8.84067 39.0705 9.50289 38.3765 9.57418 38.3005C9.64658 38.3694 10.1338 38.8334 10.1338 38.8334L10.3123 38.6461C10.3123 38.6461 9.82511 38.1824 9.7527 38.1135C9.81733 38.0459 10.1928 37.652 10.2568 37.585Z" fill="white"/>
<path d="M12.6385 39.1416C12.3917 38.9659 12.0963 38.8957 11.8064 38.9442C11.4881 38.9988 11.2027 39.1846 11.0006 39.469C10.7979 39.7543 10.7167 40.085 10.7707 40.402C10.8193 40.6927 10.9826 40.9493 11.2296 41.1244C11.4779 41.3011 11.7745 41.3702 12.0657 41.3214C12.3823 41.2682 12.6682 41.0816 12.8699 40.7992C13.0312 40.5714 13.1164 40.3134 13.1164 40.0578C13.1164 39.9941 13.1109 39.9296 13.1005 39.8659C13.0511 39.5756 12.8874 39.3183 12.6385 39.1416H12.6385ZM12.4138 40.4742C12.2468 40.7078 11.8121 41.2211 11.3794 40.9133C10.9482 40.6072 11.2905 40.0285 11.4568 39.7934C11.6237 39.5584 12.0586 39.046 12.4891 39.3521C12.9219 39.6609 12.5806 40.2399 12.4138 40.4742Z" fill="white"/>
<path d="M15.1546 40.66C14.572 40.3654 13.897 40.6105 13.5839 41.2296C13.4263 41.5409 13.3952 41.8795 13.4953 42.1866C13.5872 42.4655 13.7869 42.6936 14.0578 42.8299C14.3293 42.9688 14.6338 42.9934 14.9142 42.9011C15.2193 42.8004 15.4739 42.5744 15.6316 42.2634C15.9437 41.6444 15.7389 40.9545 15.1546 40.66ZM14.1737 42.5989C13.702 42.3616 13.953 41.7375 14.0834 41.4811C14.2133 41.2235 14.5664 40.6513 15.0375 40.8908C15.1629 40.9535 15.2466 41.0468 15.2865 41.1689C15.379 41.4515 15.229 41.8167 15.131 42.0108C15.0336 42.2035 14.8278 42.5414 14.5448 42.6341C14.4238 42.675 14.2985 42.6626 14.1737 42.5989Z" fill="white"/>
<path d="M16.7855 41.5331L16.7187 41.7222C16.7187 41.7222 17.0484 41.8381 17.131 41.8672C17.0944 41.9707 16.4518 43.8031 16.4518 43.8031L16.9512 43.9786C16.9512 43.9786 17.5943 42.1463 17.6303 42.0425C17.7129 42.0713 18.0426 42.1865 18.0426 42.1865L18.1287 41.9431L16.8039 41.4781L16.7855 41.5331" fill="white"/>
<path d="M20.0224 42.4141L19.0741 42.214L19.0614 42.2715L18.5979 44.4767L19.5655 44.6799C19.8115 44.7314 20.0161 44.7057 20.1745 44.602C20.3114 44.5126 20.4033 44.3701 20.4408 44.1925C20.4504 44.1441 20.4562 44.0978 20.4562 44.0527C20.4562 43.8598 20.3606 43.6965 20.1898 43.5795C20.3875 43.5227 20.5291 43.3772 20.5746 43.1612C20.5824 43.1274 20.5871 43.0875 20.5871 43.0424C20.587 42.8218 20.4709 42.5087 20.0224 42.4141H20.0224ZM19.6909 42.6093C19.8503 42.643 19.9607 42.704 20.0168 42.7908C20.0492 42.84 20.0651 42.8977 20.0651 42.9648C20.0651 42.9975 20.0609 43.0314 20.0532 43.0683C19.9916 43.3619 19.7544 43.3588 19.618 43.329C19.618 43.329 19.4736 43.2992 19.3899 43.2816C19.4093 43.1911 19.5194 42.6677 19.5384 42.5775C19.599 42.5898 19.6909 42.6093 19.6909 42.6093ZM19.618 43.5936C19.8874 43.6503 19.9299 43.8629 19.9299 43.992C19.9299 44.0474 19.9212 44.087 19.9201 44.0936C19.893 44.221 19.8444 44.3072 19.7698 44.3553C19.6909 44.4079 19.5773 44.418 19.4336 44.3882C19.4336 44.3882 19.2611 44.3514 19.1687 44.333C19.1886 44.2382 19.3176 43.6274 19.3371 43.5343C19.416 43.5507 19.618 43.5936 19.618 43.5936H19.618Z" fill="white"/>
<path d="M22.2804 42.7074L21.1774 44.9651L21.495 44.9888C21.495 44.9888 21.7285 44.4981 21.7594 44.4354C21.8266 44.4406 22.3665 44.4826 22.4327 44.4879C22.4538 44.5526 22.6223 45.076 22.6223 45.076L23.1694 45.1182L22.3501 42.5784L22.2804 42.7074ZM22.1593 43.6152C22.2126 43.7857 22.3152 44.1145 22.3491 44.2218C22.2402 44.2137 21.9892 44.1943 21.8814 44.1861C21.9309 44.0846 22.0812 43.7755 22.1593 43.6152Z" fill="white"/>
<path d="M24.6959 44.7991C24.6915 44.689 24.6104 42.7798 24.6104 42.7798L24.5541 42.7818L24.0819 42.8011L24.1789 45.111L25.5881 45.0512L25.5757 44.7629C25.5759 44.763 24.7977 44.7958 24.6959 44.7992" fill="white"/>
<path d="M27.1239 44.564C27.1063 44.4551 26.8098 42.5651 26.8098 42.5651L26.7533 42.5742L26.2874 42.6479L26.6455 44.9314L28.0387 44.7114L27.9938 44.4261C27.9937 44.4263 27.2235 44.5472 27.1239 44.564" fill="white"/>
<path d="M32.4746 42.5989C32.4663 42.8997 32.2898 43.1545 32.0147 43.2654C31.8545 43.3291 31.6964 43.3269 31.5435 43.2612C31.3281 43.1701 31.14 42.9544 31.026 42.6711C30.8976 42.3477 30.8769 42.0644 30.9666 41.8527C31.0364 41.6925 31.169 41.5727 31.3628 41.4957C31.6165 41.3941 31.8493 41.51 32.0465 41.6269L32.0957 41.6557L32.2375 41.433L32.19 41.401C31.8842 41.2007 31.5064 41.1589 31.1813 41.289C30.8732 41.4125 30.634 41.6403 30.5098 41.932C30.3823 42.2274 30.3836 42.5703 30.5139 42.8936C30.7571 43.5036 31.4436 43.8032 32.0466 43.5629C32.4838 43.3874 32.7211 43.0703 32.7528 42.6175L32.757 42.5591L32.4779 42.5398L32.4746 42.5989" fill="white"/>
<path d="M34.2804 42.1062C34.226 42.0108 33.2938 40.3405 33.2938 40.3405L33.2425 40.3691L32.8319 40.599L33.958 42.6157L35.189 41.9283L35.049 41.6759C35.0492 41.6761 34.3676 42.0558 34.2804 42.1062Z" fill="white"/>
<path d="M36.0166 38.5315L35.969 38.5665L35.7803 38.7051L36.7545 40.0325C36.8198 40.1218 36.8454 40.211 36.8315 40.2983C36.8082 40.4565 36.6642 40.5778 36.6039 40.6209C36.5348 40.6731 36.4084 40.7162 36.2873 40.6965C36.1845 40.6813 36.1003 40.627 36.0327 40.5365L35.0709 39.2246L34.6449 39.5388L35.6004 40.8414C35.729 41.0171 35.886 41.1207 36.0665 41.1474C36.351 41.1905 36.6181 41.032 36.7524 40.9341C37.2135 40.5951 37.2196 40.171 37.0204 39.9012L36.0166 38.5315Z" fill="white"/>
<path d="M39.1609 37.8757C38.9821 37.6907 38.7533 37.6485 38.516 37.7398C38.5348 37.6845 38.546 37.628 38.546 37.5716C38.546 37.4343 38.4913 37.3004 38.3815 37.1875C38.2327 37.0345 37.8476 36.8454 37.4537 37.2284L36.7574 37.903L38.3648 39.5624L39.0766 38.8723C39.2561 38.6999 39.3498 38.5141 39.352 38.3262C39.3548 38.1621 39.2882 38.0069 39.1609 37.8757ZM38.123 37.8036C38.123 37.9198 38.0472 38.0153 37.9862 38.0748C37.9862 38.0748 37.8795 38.1786 37.8192 38.2379C37.7543 38.1713 37.3818 37.7875 37.3181 37.7194C37.3613 37.6776 37.4294 37.6128 37.4294 37.6128C37.6469 37.4009 37.8378 37.3869 38.0131 37.5685C38.0934 37.652 38.123 37.7307 38.123 37.8036ZM38.5657 39.0078C38.4998 38.9399 38.0655 38.4905 37.9989 38.4226C38.0562 38.3674 38.205 38.2227 38.205 38.2227C38.4886 37.9493 38.7761 38.239 38.7883 38.2525C38.8777 38.3448 38.9216 38.4321 38.9216 38.5189C38.9216 38.5206 38.9216 38.5215 38.9216 38.5223C38.9205 38.6177 38.8652 38.7176 38.7602 38.8213C38.7605 38.8213 38.6219 38.9545 38.5657 39.0078V39.0078Z" fill="white"/>
<path d="M13.3372 8.18943L12.3671 8.45107L12.4784 8.79853C12.6124 9.21981 12.4912 9.66089 12.1628 9.94888C11.9801 10.109 11.7692 10.1825 11.5365 10.1666C11.183 10.1429 10.7839 9.91404 10.4695 9.55415C10.0989 9.12964 9.91401 8.72098 9.93754 8.37463C9.9539 8.12208 10.0767 7.90023 10.3123 7.69383C10.5725 7.46593 10.9025 7.47481 11.3501 7.56357L11.6821 7.62921L11.8968 6.70011L11.5626 6.61862C10.8439 6.4408 10.0945 6.61548 9.55978 7.08352C8.51264 7.9998 8.42721 9.49619 9.36116 10.5642C10.2291 11.5564 11.7349 11.6646 12.7165 10.8061C13.4234 10.1886 13.6697 9.39855 13.4296 8.52377L13.3372 8.18943Z" fill="#DBA111"/>
<path d="M15.9715 3.3237L14.9806 3.79032C14.9806 3.79032 15.5338 4.96258 15.7239 5.36659C15.4413 5.49948 15.1676 5.62883 14.8846 5.76242C14.6938 5.35871 14.1403 4.18596 14.1403 4.18596L12.8356 4.80192L14.8226 9.01674L16.1285 8.40108C16.1285 8.40108 15.5128 7.09745 15.3148 6.67476C15.5976 6.54238 15.8712 6.41313 16.1546 6.27963C16.3532 6.70112 16.9681 8.00494 16.9681 8.00494L18.2736 7.38888L16.2872 3.17506L15.9715 3.3237Z" fill="#DBA111"/>
<path d="M20.3893 5.93486C20.3257 5.62102 20.2611 5.30173 20.1983 4.9883C20.6014 4.90721 21.6726 4.69092 21.6726 4.69092L21.4841 3.75475C21.4841 3.75475 20.4125 3.97135 20.009 4.05284C19.951 3.76586 19.9029 3.52482 19.8445 3.23825C20.2631 3.15383 21.4094 2.92219 21.4094 2.92219L21.2205 1.98642L20.8776 2.05529L18.2407 2.58855L19.1626 7.1565L22.1664 6.54922L21.9777 5.61396C21.9777 5.61396 20.8108 5.84914 20.3893 5.93486Z" fill="#DBA111"/>
<path d="M24.65 1.87807L23.2054 1.84808L23.1982 2.19646L23.1079 6.5068L26.1403 6.57042L26.162 5.56114C26.162 5.56114 24.9978 5.5361 24.5724 5.52742C24.5845 4.95689 24.6499 1.87807 24.6499 1.87807" fill="#DBA111"/>
<path d="M29.3311 4.22815C28.9564 3.95288 28.8467 3.84251 28.8846 3.69216C28.9032 3.6142 28.9881 3.36529 29.2573 3.43194C29.4193 3.47354 29.5804 3.55887 29.6522 3.90744L29.7311 4.29439L30.6849 3.97207L30.6256 3.67176C30.5082 3.08195 30.0094 2.57989 29.3832 2.42347C28.9348 2.31209 28.4852 2.37167 28.1163 2.59332C27.7776 2.79618 27.5394 3.11638 27.4451 3.49535C27.2057 4.45061 27.8497 4.91056 28.2754 5.21531C28.7119 5.52744 28.8229 5.64962 28.7562 5.91034C28.7353 5.99183 28.6874 6.05616 28.6123 6.1017C28.5249 6.1531 28.4152 6.17167 28.3261 6.14845C28.0968 6.092 27.9975 5.98365 27.9009 5.68708L27.7837 5.33154L26.8267 5.72293L26.9194 6.02677C27.0988 6.61719 27.5271 6.98929 28.2281 7.16489C29.016 7.362 29.9717 6.99969 30.2098 6.05373C30.4582 5.05698 29.7799 4.55754 29.3311 4.22815Z" fill="#DBA111"/>
<path d="M32.7773 6.71343C33.145 6.89923 34.1194 7.392 34.1194 7.392L34.5504 6.53995C34.5504 6.53995 33.5751 6.04718 33.2087 5.86198C33.3399 5.60065 33.451 5.38092 33.582 5.1201C33.9623 5.31216 35.0075 5.84038 35.0075 5.84038L35.4373 4.98832L32.7249 3.61765L32.5681 3.92815L30.6224 7.77632L33.3575 9.15771L33.7888 8.30616C33.7888 8.30616 32.726 7.76926 32.342 7.57588C32.4858 7.28991 32.6335 6.9995 32.7773 6.71343Z" fill="#DBA111"/>
<path d="M38.1793 7.14865L33.8331 9.39753L34.6646 10.1206C34.6646 10.1206 35.3819 9.73924 35.6427 9.60231C35.8365 9.77115 36.1223 10.0198 36.313 10.1855C36.2195 10.4627 35.9539 11.2424 35.9539 11.2424L37.0994 12.239L38.9576 6.75968L38.1793 7.14865Z" fill="#DBA111"/>
<path d="M13.1743 8.47298L12.662 8.61223L12.6996 8.72815C12.8624 9.2395 12.7155 9.77438 12.3152 10.1245C12.0852 10.3262 11.8171 10.4186 11.521 10.3995C11.1011 10.3714 10.6546 10.1193 10.2942 9.70713C9.8821 9.23536 9.67783 8.76894 9.70489 8.35817C9.72611 8.04625 9.87897 7.76371 10.1593 7.51853C10.5274 7.19672 10.9907 7.25559 11.3954 7.33566L11.5065 7.35718L11.6186 6.87158L11.5072 6.84381C10.8614 6.68527 10.1912 6.84028 9.71277 7.25913C8.7662 8.08816 8.69016 9.44217 9.53656 10.4108C10.3199 11.3064 11.6777 11.4046 12.5641 10.6305C13.2068 10.0668 13.4228 9.37957 13.2051 8.58558L13.1743 8.47299" fill="white"/>
<path d="M16.0705 3.53298L15.2909 3.90155C15.2909 3.90155 15.9472 5.29414 16.0335 5.47721C15.8667 5.55628 14.9408 5.99321 14.7727 6.07167C14.6866 5.88829 14.0307 4.4958 14.0307 4.4958L13.1447 4.91325L14.9335 8.70649L15.819 8.28965C15.819 8.28965 15.0927 6.75024 15.0053 6.56393C15.1732 6.48487 16.0981 6.04905 16.266 5.96968C16.3532 6.15548 17.0797 7.6958 17.0797 7.6958L17.964 7.27795L16.1753 3.48411L16.0705 3.53298Z" fill="white"/>
<path d="M20.2067 6.20883C20.1703 6.02657 19.9607 4.98871 19.9243 4.80645C20.1183 4.76747 21.3984 4.50876 21.3984 4.50876L21.3016 4.02952C21.3016 4.02952 20.0219 4.28712 19.8268 4.3266C19.7913 4.14787 19.6066 3.23472 19.5712 3.05619C19.7667 3.01611 21.1353 2.74054 21.1353 2.74054L21.0382 2.2611L18.5148 2.77033L19.3448 6.88175L21.8924 6.36747L21.7955 5.88802C21.7953 5.88812 20.4038 6.16894 20.2067 6.20883Z" fill="white"/>
<path d="M24.4122 2.10622L23.4339 2.08502L23.4319 2.20054L23.3452 6.27874L25.9134 6.33317L25.9248 5.7888C25.9248 5.7888 24.5345 5.75941 24.3354 5.75517C24.3404 5.53756 24.4123 2.10623 24.4123 2.10623" fill="white"/>
<path d="M29.3137 3.20699C29.6247 3.28484 29.8044 3.49265 29.8805 3.86072L29.907 3.98937L30.4172 3.81689L30.3979 3.71622C30.2971 3.21365 29.8672 2.78429 29.3271 2.64848C28.9389 2.55164 28.5521 2.60243 28.2368 2.79177C27.9515 2.96323 27.7504 3.23334 27.6711 3.55193C27.4701 4.35319 27.9924 4.7264 28.4113 5.0258C28.8353 5.32904 29.0908 5.53604 28.982 5.96611C28.9388 6.14514 28.8218 6.24744 28.7317 6.30126C28.5919 6.38497 28.4205 6.41112 28.2698 6.37416C27.9605 6.29661 27.8013 6.1303 27.6805 5.75931L27.6411 5.64076L27.1116 5.85675L27.1424 5.95844C27.2963 6.46444 27.6704 6.78524 28.286 6.93934C28.9624 7.10827 29.782 6.80221 29.984 5.9965C30.1944 5.15202 29.6401 4.74337 29.1914 4.41539C28.8106 4.13427 28.5806 3.94635 28.6589 3.63574C28.7274 3.35805 28.9574 3.11772 29.3137 3.20699" fill="white"/>
<path d="M33.4797 4.8082C33.6582 4.89797 34.9036 5.52737 34.9036 5.52737L35.1253 5.09044L32.828 3.9299L32.7754 4.0335L30.9359 7.67386L33.2547 8.84571L33.4756 8.40898C33.4756 8.40898 32.2096 7.76888 32.0303 7.6779C32.1139 7.51169 32.5916 6.56785 32.6747 6.40153C32.8514 6.4908 34.0163 7.0795 34.0163 7.0795L34.2384 6.64257C34.2384 6.64257 33.0722 6.05437 32.8955 5.9646C32.9777 5.80243 33.3977 4.97037 33.4797 4.8082Z" fill="white"/>
<path d="M38.2863 7.35569L34.2446 9.44735L34.6963 9.84005C34.6963 9.84005 35.5534 9.38565 35.6747 9.32143C35.7753 9.40928 36.4856 10.0273 36.5841 10.113C36.5413 10.2407 36.2238 11.1689 36.2238 11.1689L36.9908 11.8358L38.5525 7.23088L38.2863 7.35569ZM36.1426 9.0808C36.3338 8.98194 36.8222 8.72818 37.1201 8.57318C37.0092 8.88985 36.8264 9.4113 36.7564 9.61426C36.6014 9.47855 36.2978 9.21479 36.1426 9.0808Z" fill="white"/>
<path d="M35.4659 23.3702C35.1344 22.4923 33.993 22.111 32.9141 22.5182C32.4642 22.6874 32.0957 22.9704 31.8445 23.3044C32.5569 21.2711 35.4588 20.8396 35.4588 18.948C35.4588 15.7774 30.9562 16.6655 31.6113 18.9485C31.6113 17.9126 33.2599 17.7228 33.2599 18.9485C33.2599 20.1743 30.3854 20.9782 30.3854 23.0492C30.3854 25.3322 32.6688 25.5434 32.4376 27.6315C32.3984 27.9915 32.0112 28.4645 31.4508 28.4645C27.9534 28.4645 29.2019 24.1592 27.9799 22.8492L28.0438 21.9646C28.7502 22.3978 30.6245 21.383 29.3906 19.836C29.3906 20.5967 27.8065 20.5546 27.8065 19.1173C27.8065 17.1725 29.6247 18.1873 29.7131 18.6168C29.6259 17.9085 29.593 17.4591 29.7099 17.0509C28.7297 17.367 28.638 16.8004 28.762 16.5811C28.904 16.3276 29.094 16.0314 29.4759 16.0314C29.6823 16.0314 29.8062 16.0602 29.8792 16.1105C30.0012 16.194 30.0905 16.0033 30.073 16.1807C30.178 16.021 30.1359 16.2204 30.2371 16.0602C30.3402 15.9012 30.4791 15.7213 30.723 15.4817L30.7125 15.1229L30.9981 15.2276L31.2723 14.7842C30.9764 14.1708 30.5749 14.4663 30.2792 13.7057C30.0319 13.6415 26.1805 14.0603 26.2922 12.524C25.9782 12.524 25.2343 12.696 25.6946 13.3216C25.3367 13.3647 25.0787 12.9582 24.539 14.0577C25.215 13.931 24.8651 14.6866 24.8651 14.9016C24.8651 16.2947 23.0105 16.2711 23.0105 15.6186C22.5636 16.0529 22.8172 17.0026 23.4931 17.2366C23.4931 17.2366 23.236 18.2524 22.6015 18.8965C21.6596 18.8589 20.1484 18.6952 19.2791 17.8735C18.9042 17.5193 18.6065 17.3264 18.3529 17.2272V16.7667C18.7241 16.5851 19.1312 16.2636 19.5542 15.7263C19.8842 15.3233 20.0628 14.8065 20.0147 14.2576C20.0085 14.1921 19.9988 14.1274 19.9873 14.0643C19.9837 14.0442 19.9788 14.0247 19.9741 14.0047C19.9648 13.9605 19.9541 13.9181 19.9413 13.8743C19.9351 13.8532 19.9294 13.8316 19.9227 13.8107C19.9084 13.7669 19.8926 13.725 19.8756 13.6834C19.8684 13.6659 19.8634 13.6473 19.855 13.631C19.8314 13.5749 19.8052 13.5222 19.7768 13.4691C19.7647 13.4476 19.7519 13.4275 19.7401 13.4077C19.7206 13.3758 19.7021 13.3435 19.6816 13.3127C19.665 13.2883 19.6477 13.2635 19.6302 13.2389C19.6122 13.2154 19.5932 13.1912 19.5748 13.1676C19.5542 13.1423 19.5341 13.1156 19.5122 13.0905C19.4976 13.074 19.4819 13.058 19.4665 13.0428C19.4116 12.9821 19.352 12.9256 19.2898 12.8717C19.2846 12.8673 19.2785 12.8615 19.2724 12.8569C19.2377 12.8272 19.2006 12.7988 19.1642 12.7717C19.1549 12.7647 19.1452 12.7578 19.1348 12.7506C19.0958 12.7231 19.0559 12.6962 19.0143 12.6706C19.0118 12.669 19.0095 12.668 19.0077 12.6661C18.6118 12.4238 18.1335 12.297 17.6283 12.337C16.4119 12.4339 15.5078 13.4502 15.6093 14.6072C15.6884 15.5087 16.3533 16.2286 17.2176 16.4583C16.9144 16.6275 16.6582 16.7251 16.6003 16.7251C16.6099 16.7313 16.6225 16.7385 16.6361 16.7473C16.6396 16.7489 16.6438 16.7514 16.648 16.7535C16.6597 16.7611 16.6737 16.7689 16.6879 16.7765C16.6914 16.7786 16.6958 16.7806 16.6992 16.7827C16.7187 16.7925 16.7388 16.8027 16.7614 16.8135C16.7649 16.8151 16.7692 16.8164 16.7727 16.8182C16.7927 16.8274 16.8131 16.8371 16.8347 16.8454C16.8409 16.8482 16.8476 16.8508 16.8542 16.853C16.9071 16.8751 16.9667 16.895 17.0318 16.9136C17.0411 16.9161 17.0509 16.9182 17.0589 16.9208C17.0853 16.9274 17.112 16.9336 17.1397 16.9402C17.1488 16.9418 17.1581 16.9438 17.1679 16.9458C17.2028 16.952 17.2393 16.9582 17.276 16.9626C17.2791 16.9626 17.2823 16.9642 17.2853 16.9642V17.2261C17.2716 17.2291 17.2591 17.2305 17.2463 17.2325C16.8507 17.2977 16.5936 17.4195 16.4774 17.7717C16.3618 18.1252 16.4805 18.2529 16.6658 18.5009C16.5093 18.7807 16.0991 18.8854 16.6344 19.5035C16.5954 19.737 16.6448 20.1088 16.9846 20.2216C17.0954 20.2592 17.1878 20.2792 17.2853 20.296L17.2848 24.9305C16.9459 25.11 16.7787 25.334 16.6862 25.5427C16.6862 25.5427 16.4142 24.9388 16.4322 26.1352C16.7413 25.8953 16.6196 26.4129 16.6196 26.4129C16.1987 26.9581 16.7333 26.9286 16.7333 26.9286C17.0958 26.5664 17.0219 27.0926 17.0219 27.0926C17.0219 27.7344 17.2825 27.9855 17.2847 27.9865V31.5172L16.9768 31.5181L16.9798 32.4923L17.5182 32.4914C17.2161 32.6168 17.0167 32.9152 17.0458 33.245C17.0824 33.6608 17.4664 33.9696 17.9037 33.9359C18.3407 33.9008 18.6654 33.5363 18.6281 33.1196C18.6034 32.832 18.4129 32.5974 18.1537 32.4895L18.6506 32.4881L18.6485 31.5139L18.3522 31.5153L18.3527 28.3827C18.4138 28.4163 18.4798 28.4395 18.5515 28.4551C18.5801 28.4605 18.6085 28.4644 18.6376 28.4663C18.6505 28.4684 18.6638 28.4684 18.6766 28.4688C18.5969 28.057 18.8429 27.784 18.8429 27.784C18.9692 27.5939 19.1519 27.4457 19.3598 27.3411C19.9816 27.0291 20.83 27.108 21.0835 27.6158C22.6902 27.1923 24.0709 25.5774 24.0709 25.5774L24.8617 26.9234C23.185 27.484 19.5328 30.659 22.068 31.7586C22.067 32.0787 22.0241 34.4543 20.5008 34.2656C18.3069 33.9954 17.7598 34.9031 18.1811 35.9235C17.9831 36.7839 18.6457 37.0826 18.6457 37.0826C18.5463 36.5856 18.7853 36.1738 19.692 36.179C19.6873 37.0857 20.2729 37.2492 20.2729 37.2492C20.277 36.4728 20.8165 36.1852 21.2959 36.1873C21.2924 36.8271 22.0356 37.0703 22.0356 37.0703C22.0356 37.0703 21.8472 36.3329 22.6875 36.1873C24.8145 35.8167 22.8168 33.6291 26.0514 33.0263C26.0514 33.0263 24.4407 32.7835 24.4407 31.9029C24.4407 31.1015 25.8988 30.5535 26.4007 30.5535C27.4302 32.5204 28.5486 32.536 28.8418 32.55C29.2977 33.0592 29.1449 34.7757 28.4867 34.7419C26.0773 34.6126 26.1654 36.0782 26.4355 36.378C26.4047 36.9469 26.8473 37.2755 26.8473 37.2755C26.8473 36.6657 27.4275 36.4942 28.1716 36.5345C28.1325 37.2794 28.6071 37.3907 28.6071 37.3907C28.6201 36.641 29.1747 36.5139 29.5687 36.5345C29.5399 37.0599 30.0614 37.2146 30.0614 37.2146C30.0614 37.2146 30.0101 36.5477 30.7121 36.5477C32.0438 36.5468 30.1097 33.6929 32.7088 30.8703C30.4257 31.9272 29.211 29.2854 29.211 28.7784C30.3845 30.1516 34.1892 30.4257 34.1892 28.08C34.1892 25.8391 31.7262 25.0041 32.8786 24.147C33.5488 23.6487 34.8667 24.6554 34.1126 25.6954C35.194 25.2947 35.7965 24.2476 35.4657 23.3702L35.4659 23.3702ZM20.8723 23.4409C20.0115 23.947 19.4345 24.5873 18.6498 24.8674C18.5306 24.9092 18.4356 24.9211 18.353 24.9158V20.5418C18.5609 20.5613 19.1004 20.6351 19.7312 20.8959C20.356 21.2368 20.356 21.9415 19.5675 22.1085C20.0659 23.0626 21.7921 22.5955 22.1683 21.8184C22.3526 21.802 22.5155 22.131 22.6687 22.442C22.4264 22.5678 21.9307 22.8178 20.8723 23.4409ZM30.5065 16.19C30.4118 16.3184 30.3185 16.4461 30.2367 16.5556C30.455 16.9184 30.8657 17.1452 31.3156 17.1036C31.9375 17.0447 32.3952 16.4928 32.338 15.8704C32.3347 15.8477 32.3316 15.8273 32.3285 15.8052C32.2619 16.1275 31.882 16.4005 31.3988 16.4451C31.033 16.4795 30.7018 16.3744 30.5065 16.19H30.5065Z" fill="#D1D3D4"/>
<path d="M29.5405 15.859C29.7572 16.2218 30.1689 16.4486 30.6188 16.4067C31.2416 16.3485 31.6981 15.7963 31.6412 15.1732C31.6389 15.1511 31.6348 15.1299 31.6319 15.1079C31.5659 15.4298 31.1842 15.7035 30.702 15.7482C30.3351 15.7826 30.0044 15.6773 29.8091 15.493C29.715 15.6219 29.6206 15.7495 29.5405 15.859" fill="#ED1C24"/>
<path d="M26.2081 11.1063C26.1902 11.1063 26.1722 11.1132 26.1508 11.1206C25.7599 11.2031 24.5599 12.0289 24.998 12.6243C24.6384 12.6668 23.8036 12.4205 23.2651 13.5194C23.9416 13.3921 24.1673 13.9916 24.1673 14.2068C24.1673 15.0223 23.5338 15.3494 23.0073 15.3526C22.6549 15.3535 22.3526 15.2099 22.3199 14.9659C22.3214 14.9587 22.3182 14.9517 22.3199 14.9444C22.3194 14.9437 22.3127 14.9453 22.3127 14.9444H22.2984C21.8785 15.3874 22.1336 16.3107 22.7996 16.5412C22.7996 16.5412 22.5391 17.5584 21.9045 18.2025C21.2728 18.178 20.3909 18.092 19.6131 17.7944C19.3954 17.7116 19.1894 17.6076 18.9973 17.4864C18.8491 17.3946 18.7069 17.2962 18.582 17.1785C18.2072 16.8244 17.9114 16.6321 17.6582 16.5341V16.0686C18.0294 15.8866 18.4382 15.5676 18.8612 15.0303C19.1917 14.6277 19.3678 14.1116 19.3195 13.5624C19.3144 13.4967 19.3039 13.4333 19.2909 13.369C19.288 13.349 19.2808 13.3318 19.2766 13.3118C19.2669 13.2675 19.2606 13.2182 19.2479 13.1757C19.2422 13.154 19.234 13.1328 19.2264 13.1113C19.2125 13.0674 19.1927 13.0311 19.1763 12.9895C19.1691 12.9719 19.1693 12.9497 19.162 12.9322C19.1379 12.8773 19.1111 12.8265 19.0832 12.7747C19.0721 12.7526 19.059 12.7314 19.0474 12.7103C19.0279 12.6786 19.0033 12.648 18.983 12.6172C18.9661 12.5925 18.9509 12.5701 18.9329 12.5456C18.915 12.522 18.8947 12.4966 18.8756 12.474C18.8552 12.4472 18.8404 12.4202 18.8183 12.3952C18.8039 12.3786 18.7836 12.3608 18.7682 12.3451C18.7126 12.285 18.6583 12.2261 18.5963 12.1732C18.59 12.1682 18.581 12.1633 18.5748 12.1589C18.54 12.1296 18.5049 12.0996 18.4674 12.073C18.4575 12.0665 18.4485 12.0581 18.4388 12.0515C18.3992 12.0233 18.3588 11.9987 18.317 11.9727C18.3146 11.9716 18.3122 11.9736 18.3099 11.9727C17.9142 11.7291 17.44 11.6038 16.935 11.6433C16.8263 11.652 16.7163 11.6713 16.6128 11.6934C15.5614 11.9264 14.8229 12.8601 14.9157 13.9133C14.9944 14.8054 15.6404 15.5164 16.4911 15.7536C16.4997 15.756 16.5106 15.7585 16.5197 15.7607C16.2159 15.93 15.962 16.0257 15.9039 16.0257C15.9138 16.0319 15.9259 16.045 15.9397 16.0543C15.9432 16.0559 15.9499 16.0521 15.954 16.0543C15.9662 16.0614 15.9745 16.0748 15.9898 16.0829C15.9935 16.085 15.9999 16.0816 16.0041 16.0829C16.0223 16.0926 16.0394 16.1079 16.0614 16.1188C16.0654 16.1199 16.0726 16.1237 16.0757 16.1259C16.095 16.135 16.1177 16.1381 16.1402 16.1474C16.1463 16.15 16.1478 16.152 16.1545 16.1546C16.2085 16.1759 16.2677 16.2006 16.3335 16.219C16.3426 16.2211 16.3529 16.2235 16.3622 16.2262C16.3877 16.2328 16.4133 16.2347 16.4409 16.2405C16.4502 16.243 16.4598 16.2455 16.4696 16.2476C16.5044 16.2543 16.5393 16.2646 16.577 16.2691C16.5796 16.2691 16.5887 16.2673 16.5913 16.2691V16.5269C16.579 16.5287 16.5617 16.5316 16.5483 16.5341C16.1536 16.5987 15.8981 16.7255 15.7821 17.0783C15.6666 17.4318 15.7831 17.5607 15.9683 17.8087C15.8107 18.0875 15.4054 18.1926 15.9397 18.8112C15.9017 19.0441 15.9512 19.4142 16.2906 19.5272C16.4017 19.5648 16.4943 19.5815 16.5913 19.5989V24.2318C16.252 24.4117 16.0816 24.6387 15.9898 24.8476C15.9898 24.8476 15.3412 24.7606 15.3597 25.9576C15.6686 25.7165 15.9254 25.7141 15.9254 25.7141C15.505 26.2589 15.8036 26.7595 15.8036 26.7595C16.166 26.3965 16.3264 26.3944 16.3264 26.3944C16.3264 27.0387 16.5913 27.2894 16.5913 27.2894C16.5913 27.1923 16.5964 27.1042 16.6128 27.0173C16.5964 27.1042 16.5913 27.1923 16.5913 27.2894V30.8197H16.2834V31.2708V31.7935H16.8204C16.7547 31.821 16.6955 31.8579 16.6414 31.9009C16.4554 32.0425 16.3411 32.2612 16.3478 32.5024V32.5454C16.3848 32.9621 16.7693 33.2759 17.2071 33.24C17.6437 33.2058 17.9664 32.8394 17.9304 32.4237C17.9048 32.1373 17.7169 31.9014 17.4577 31.7935H17.9518V30.8197H17.6582V27.6833C17.7198 27.7152 17.7814 27.741 17.8516 27.7549C17.8817 27.7618 17.9155 27.7659 17.9447 27.7692C17.9575 27.7694 17.9677 27.7688 17.9805 27.7692C17.9008 27.3576 18.1452 27.0889 18.1452 27.0889C18.2725 26.8984 18.4537 26.7498 18.6607 26.645C19.2833 26.3329 20.1329 26.4095 20.3865 26.9171C21.9932 26.4942 23.3725 24.8834 23.3725 24.8834L24.1673 26.2225C22.4902 26.7838 18.8396 29.9626 21.3747 31.0631C21.3735 31.3822 21.329 33.7561 19.8065 33.5694C17.6131 33.2979 17.0654 34.2031 17.4864 35.2235C17.2877 36.0849 17.9518 36.3835 17.9518 36.3835C17.8528 35.8871 18.0908 35.4769 18.9973 35.4813C18.9924 36.3878 19.5773 36.5554 19.5773 36.5554C19.5805 35.778 20.1213 35.4856 20.6013 35.4884C20.5982 36.1282 21.3388 36.3764 21.3388 36.3764C21.3388 36.3764 21.1493 35.6341 21.9905 35.4884C24.1168 35.1179 22.1212 32.9343 25.356 32.3306C25.356 32.3306 23.7448 32.0878 23.7448 31.2063C23.7448 30.4062 25.1986 29.8601 25.6997 29.8601C25.7002 29.8613 25.7063 29.859 25.7069 29.8601C26.7363 31.8183 27.8564 31.8358 28.1487 31.8508C28.6043 32.359 28.4488 34.0765 27.7906 34.042C25.3812 33.9136 25.4656 35.382 25.7355 35.6818C25.7055 36.2516 26.1508 36.5769 26.1508 36.5769C26.1508 35.9667 26.7315 35.8 27.4756 35.8393C27.4356 36.5835 27.9124 36.6914 27.9124 36.6914C27.9235 35.9417 28.4773 35.8185 28.8719 35.8393C28.8443 36.3659 29.366 36.5196 29.366 36.5196C29.366 36.5196 29.316 35.8544 30.0176 35.8536C31.3498 35.8536 29.4149 32.9976 32.0154 30.1752C29.7324 31.2325 28.5139 28.5914 28.5139 28.0843C29.6875 29.458 33.4977 29.7276 33.4977 27.3825C33.4977 25.4904 31.7411 24.5993 31.8866 23.8523C31.9132 23.7151 32.0015 23.5848 32.1801 23.4513C32.8512 22.9525 34.1692 23.9597 33.4189 24.998C34.4993 24.5972 35.1019 23.548 34.7723 22.6708C34.4398 21.7929 33.2941 21.4116 32.2159 21.8187C31.7643 21.9891 31.3999 22.2717 31.149 22.6063C31.8602 20.5732 34.7652 20.1451 34.7652 18.2526C34.7652 15.082 30.2576 15.9696 30.9127 18.2526C30.9127 18.2183 30.9157 18.1854 30.9198 18.1524C30.9262 18.0932 30.9388 18.0405 30.9556 17.9877C31.2089 17.1963 32.5668 17.1405 32.5668 18.2526C32.5668 19.4785 29.6882 20.2839 29.6882 22.3557C29.6882 24.6387 31.9743 24.8442 31.7433 26.9314C31.7042 27.2927 31.3156 27.7692 30.7551 27.7692C29.5534 27.7692 28.9089 27.2583 28.5353 26.5376C27.8227 25.1609 28.0846 23.0144 27.2822 22.1552L27.3467 21.2673C28.0535 21.701 29.9316 20.6875 28.7 19.1406C28.7 19.9021 27.1104 19.8541 27.1104 18.4173C27.1104 16.4725 28.9267 17.4942 29.0151 17.9232C28.9279 17.2154 28.8957 16.7617 29.0151 16.3551C28.0339 16.6702 27.9406 16.1023 28.0627 15.8824C28.2063 15.6284 28.3976 15.3311 28.7788 15.3311C29.3298 15.3311 29.2947 15.533 29.2657 15.818C29.4762 15.4997 29.535 15.2658 30.0248 14.7869L30.0176 14.4288L30.304 14.5291L30.5762 14.0851C30.2807 13.4717 29.8777 13.7722 29.5808 13.011C29.3346 12.9464 26.096 12.6431 26.2081 11.1063ZM25.4992 12.2878C25.5118 12.369 25.5387 12.4515 25.5851 12.5241C25.5387 12.4515 25.5118 12.369 25.4992 12.2878ZM17.0711 13.2115C17.3729 13.1874 17.6397 13.4029 17.6654 13.6913C17.6905 13.9783 17.4665 14.233 17.1642 14.257C16.8612 14.2813 16.594 14.0653 16.5698 13.7772C16.5632 13.7008 16.5727 13.6304 16.5985 13.5624C16.5985 13.5608 16.5978 13.5558 16.5985 13.5552C16.6014 13.5449 16.6095 13.5367 16.6128 13.5266C16.6919 13.3572 16.8632 13.2283 17.0711 13.2115ZM24.4108 13.5123C24.4469 13.5726 24.4732 13.6417 24.4967 13.7128C24.4732 13.6417 24.4469 13.5726 24.4108 13.5123ZM22.2984 15.3168C22.3172 15.428 22.3579 15.5269 22.413 15.6175C22.358 15.5268 22.317 15.4281 22.2984 15.3168ZM23.4871 16.8062C23.409 17.0176 23.2989 17.2716 23.1791 17.5294C23.2989 17.2716 23.409 17.0176 23.4871 16.8062ZM31.5357 17.2716C31.405 17.3416 31.2821 17.4344 31.1848 17.5437C31.2829 17.4326 31.4033 17.3424 31.5357 17.2716ZM33.0609 17.4435C33.1105 17.4982 33.1516 17.5611 33.1898 17.6297C33.1516 17.5611 33.1106 17.4982 33.0609 17.4435ZM17.6582 19.8423C17.8662 19.8623 18.4033 19.9405 19.0331 20.2003C19.0404 20.2039 19.0483 20.2034 19.0546 20.2075C19.6603 20.5529 19.6482 21.2467 18.8684 21.4105C19.3658 22.3655 21.0988 21.9012 21.4749 21.1241C21.6583 21.1077 21.8155 21.4366 21.969 21.7471C21.7271 21.8731 21.2368 22.1193 20.1788 22.7424C19.318 23.2491 18.7367 23.8878 17.9518 24.1674C17.8323 24.2107 17.7402 24.222 17.6582 24.2175V19.8423ZM22.5347 19.8924C22.4994 19.9923 22.4531 20.0867 22.3915 20.1717C22.4531 20.0867 22.4994 19.9923 22.5347 19.8924ZM18.1523 24.6471C18.0517 24.6674 17.9658 24.6829 17.8874 24.6829C17.9658 24.6829 18.0517 24.6674 18.1523 24.6471ZM16.2691 24.8978C16.2471 24.9136 16.2275 24.9369 16.2118 24.9551C16.2293 24.9338 16.2432 24.9159 16.2691 24.8978ZM15.6389 25.4062C15.5596 25.4954 15.4877 25.5888 15.4384 25.6854C15.4869 25.5902 15.5611 25.4944 15.6389 25.4062ZM32.5668 26.8312C32.5707 26.8912 32.574 26.9544 32.574 27.0173C32.574 27.0484 32.5661 27.0931 32.5597 27.1462C32.5661 27.0931 32.5668 27.0484 32.5668 27.0173C32.5668 26.952 32.5709 26.8934 32.5668 26.8312H32.5668ZM32.3234 27.7692C32.2957 27.8079 32.2644 27.8466 32.2303 27.8838C32.263 27.8478 32.2966 27.8066 32.3234 27.7692ZM16.8133 31.8651C16.847 31.8651 16.8817 31.8729 16.9135 31.8794C16.8817 31.8729 16.847 31.8723 16.8133 31.8723C16.783 31.8723 16.7558 31.8739 16.7274 31.8794C16.7558 31.8738 16.7832 31.8651 16.8133 31.8651Z" fill="#034694"/>
<path d="M28.0284 13.759L28.4195 13.7796L28.2238 14.048C28.2237 14.048 27.9626 14.1306 28.0284 13.759ZM27.0955 13.759H27.6589C27.6589 13.759 27.6386 14.2137 28.05 14.2544L27.9627 14.3992C27.9626 14.3992 26.857 14.1102 27.0955 13.759Z" fill="white"/>
<path d="M17.4179 17.6436C17.4374 17.5703 16.7539 17.1704 16.3821 17.0731C16.2255 17.0325 16.1048 17.2208 16.0853 17.2943C16.0663 17.3682 16.0792 17.5915 16.2353 17.6325C16.6074 17.73 17.3989 17.7171 17.4179 17.6436V17.6436ZM17.3619 18.3258C17.3676 18.2566 16.6859 18.0114 16.3342 17.985C16.187 17.9742 16.1094 18.1647 16.1048 18.2333C16.0999 18.3033 16.1484 18.5024 16.2959 18.5129C16.647 18.5389 17.3574 18.3962 17.3619 18.3258ZM16.5879 16.2687V16.53C16.6879 16.6301 17.0524 16.7476 17.094 16.7476V16.23C17.0941 16.2301 16.8199 16.2876 16.5879 16.2687ZM16.4452 18.8181C16.3385 18.8223 16.2984 18.9639 16.301 19.0148C16.3019 19.0651 16.3528 19.2041 16.4596 19.2C16.7136 19.1909 17.2115 19.0311 17.2095 18.9813C17.2074 18.9313 16.6993 18.8093 16.4452 18.8181ZM15.9221 25.7168C15.5018 26.2616 15.8045 26.7585 15.8045 26.7585C15.8045 26.3791 16.2373 25.8908 16.3338 25.7955C16.3338 25.7956 16.1856 25.7168 15.9221 25.7168ZM17.2633 26.8726C17.1987 27.2087 17.3659 27.5359 17.6554 27.6864C17.717 27.7183 17.7839 27.7436 17.854 27.7574C17.8841 27.7643 17.9123 27.7679 17.9415 27.7712C17.9543 27.7714 17.9672 27.7717 17.9801 27.7721C17.9801 27.7721 17.5543 27.3736 17.7255 26.9968C17.6144 26.9206 17.4487 26.8725 17.2633 26.8725V26.8726ZM16.494 15.7538C15.8565 15.4427 15.4032 14.6631 15.4032 13.7489C15.4032 12.7788 15.9128 11.959 16.6131 11.6906C15.5617 11.9235 14.8201 12.8579 14.9129 13.9111C14.9915 14.8032 15.6433 15.5166 16.494 15.7538ZM23.2619 13.5163C23.9385 13.3889 24.168 13.9904 24.168 14.2057C24.168 15.0212 23.5328 15.3498 23.0063 15.3529V15.3534C25.4486 15.3534 24.588 12.1906 23.2619 13.5163V13.5163ZM21.6295 20.5346C22.7967 20.5346 22.7183 19.0102 22.4658 18.7575C22.8403 18.3833 23.611 16.6664 23.611 16.3492C23.611 16.3492 22.0705 16.017 22.3165 14.9479C22.316 14.9472 22.316 14.9468 22.316 14.9459L22.2954 14.9421C21.8755 15.3851 22.1308 16.3091 22.7969 16.5396C22.7969 16.5396 22.5398 17.5554 21.9052 18.1996C21.2735 18.175 20.388 18.0919 19.6103 17.7942C20.8125 18.4323 22.0505 19.3967 21.6296 20.5347L21.6295 20.5346ZM17.0699 13.215C17.3717 13.1909 17.6374 13.4049 17.6632 13.6933C17.6882 13.9803 17.4635 14.2339 17.1611 14.2578C16.8582 14.2822 16.5919 14.0682 16.5678 13.7801C16.5678 14.2266 16.9303 14.5896 17.3777 14.5896C17.3844 14.5896 17.3911 14.5891 17.3978 14.5891C17.4379 14.7871 17.4516 14.9975 17.387 15.1516C17.824 14.7717 18.1874 14.2964 18.1874 13.7801C18.1874 13.3324 17.824 12.9696 17.3777 12.9696C17.0051 12.9696 16.6931 13.2205 16.5977 13.5614C16.6685 13.374 16.8476 13.233 17.0699 13.215L17.0699 13.215ZM25.6715 12.6257C25.1436 12.097 25.9237 11.1088 26.2103 11.1088C25.8968 11.1088 24.5378 11.9987 24.9991 12.6257C25.2537 12.6257 25.6715 12.6257 25.6715 12.6257ZM18.8711 21.4113C19.2898 21.5399 19.7107 21.3832 19.8088 21.0614C19.9068 20.7391 19.6456 20.3751 19.2261 20.2461C19.1683 20.2289 19.1098 20.2164 19.0522 20.2094C19.6579 20.5547 19.6508 21.2475 18.8711 21.4113ZM17.6565 16.9626C17.6565 16.9626 18.2565 17.1525 18.9947 17.4897C18.8465 17.3979 18.7074 17.2942 18.5825 17.1766C18.2078 16.8225 17.9097 16.6295 17.6565 16.5315V16.9626ZM17.8841 24.6801C19.1386 24.6801 23.4759 21.9109 23.4759 21.9109C22.4046 21.9109 21.9719 21.7452 21.9719 21.7452C21.7301 21.8712 21.2338 22.1202 20.1758 22.7433C19.315 23.25 18.738 23.8907 17.9531 24.1703C17.8335 24.2137 17.7385 24.2238 17.6565 24.2192C17.4759 24.2037 17.2772 24.1791 17.094 24.1682V20.1856C17.094 19.7679 16.789 19.6 16.5879 19.6V24.2348C16.2486 24.4146 16.0817 24.6381 15.9899 24.847C15.9899 24.847 15.3431 24.7608 15.3616 25.9578C15.3616 25.6403 15.8327 25.0851 16.1593 25.0851C16.1593 24.6801 17.3481 24.6801 17.8841 24.6801ZM28.7031 31.0917C28.3854 31.0917 26.9275 31.1534 26.7966 29.8835C26.4743 29.8143 26.0982 29.8004 25.7032 29.8565C26.7338 31.8236 27.8527 31.8393 28.1454 31.8544C28.601 32.3626 28.4484 34.0788 27.7902 34.0443C25.3807 33.9159 25.4691 35.3818 25.739 35.6816C25.739 34.5763 26.4904 34.3143 28.3885 34.3143C28.3886 34.3143 29.94 32.3287 28.7031 31.0917ZM29.1986 35.838H28.8725C28.8449 36.3646 29.3661 36.5196 29.3661 36.5196C29.1986 36.3521 29.0765 35.9611 29.1986 35.838ZM26.1497 36.5793C26.011 36.4405 25.8968 35.8841 26.0982 35.6816H25.7389C25.7089 36.2515 26.1497 36.5793 26.1497 36.5793ZM33.342 18.2788C33.342 16.5961 31.0343 16.8604 30.9204 18.1526C31.0222 17.2055 32.564 17.0657 32.564 18.252C32.564 19.4779 29.6885 20.281 29.6885 22.3528C29.6885 24.6359 31.9713 24.8471 31.7403 26.9343C31.7013 27.2956 31.3141 27.7678 30.7537 27.7678C29.5519 27.7678 28.9087 27.2577 28.5352 26.537C28.9172 27.5574 29.5895 28.3395 30.9887 28.3395C32.4384 28.3395 32.57 27.2679 32.57 27.019C32.57 24.9293 30.3874 24.4325 30.3874 22.4464C30.3876 20.5126 33.342 19.716 33.342 18.2788ZM16.325 26.3971C16.325 27.0415 16.5879 27.2914 16.5879 27.2914C16.5879 26.9029 16.7475 26.5745 16.8388 26.484C16.7039 26.3481 16.325 26.3971 16.325 26.3971ZM33 22.8357C32.4143 22.8357 31.9346 23.284 31.8841 23.8558C31.9108 23.7186 32.0023 23.5852 32.1809 23.4517C32.852 22.9529 34.1673 23.9576 33.4171 24.9959C33.8295 24.8303 34.1192 24.4279 34.1192 23.9564C34.1194 23.338 33.6183 22.8357 33 22.8357ZM27.8663 35.838H27.475C27.435 36.5822 27.9112 36.6941 27.9112 36.6941C27.7092 36.4927 27.6755 36.0286 27.8663 35.838ZM16.8127 31.8688C16.7522 31.8688 16.6957 31.8812 16.6419 31.9017C16.4559 32.0433 16.3425 32.2632 16.3493 32.5045C16.4113 32.7029 16.594 32.8463 16.8127 32.8463C17.0827 32.8463 17.3013 32.6276 17.3013 32.3577C17.3013 32.0875 17.0827 31.8688 16.8127 31.8688ZM19.5614 35.4827H18.9958C18.9909 36.3892 19.5772 36.5536 19.5772 36.5536C19.4119 36.3872 19.2021 35.8418 19.5614 35.4827H19.5614ZM21.3153 29.7503C21.3153 27.6769 26.281 27.4335 26.281 25.7254C26.281 25.0298 25.6804 24.7156 25.2535 24.7156C25.3744 24.8367 26.0202 26.2256 24.1656 26.2256C22.4884 26.7869 18.8363 29.9615 21.3713 31.0621C21.3702 31.3812 21.3272 33.757 19.8046 33.5703C17.6113 33.2989 17.0641 34.2055 17.4851 35.2259C17.4851 33.6777 18.5723 33.9653 19.9922 33.9653C20.8801 33.9653 22.1781 32.8424 22.1781 30.9519C22.1781 30.9519 21.3153 30.6208 21.3153 29.7503ZM17.0941 31.021V26.8577C16.8127 26.8577 16.588 27.2916 16.588 27.2916V30.8436V30.8208L16.2804 30.8218L16.283 31.2702C16.5196 31.2701 17.0941 31.148 17.0941 31.0209L17.0941 31.021ZM17.9488 36.3858C17.9488 36.3858 17.5098 35.6961 17.9802 35.2259H17.4852C17.2865 36.0874 17.9488 36.3858 17.9488 36.3858ZM21.0099 35.4917C21.0099 35.4917 20.7735 35.4917 20.5994 35.4917C20.5963 36.1315 21.3396 36.3737 21.3396 36.3737C21.0777 36.113 20.8982 35.6018 21.0099 35.4917Z" fill="#6A7AB5"/>
<path d="M7.20211 28.5796L7.17475 28.4956L7.16304 28.4081C7.12295 28.1087 7.05055 27.551 6.61998 27.4513C6.50487 27.4245 6.38591 27.4383 6.25898 27.4905C6.29352 27.358 6.28948 27.238 6.24787 27.1281C6.08913 26.7153 5.52719 26.7205 5.22527 26.7244H5.13651L5.04906 26.7083C4.75249 26.6537 4.19923 26.5504 3.97223 26.9292C3.91124 27.0304 3.88701 27.1475 3.89741 27.284C3.78249 27.2098 3.66667 27.1766 3.54984 27.1823C3.10796 27.2058 2.93902 27.742 2.84865 28.0306L2.82108 28.1144L2.78008 28.1923C2.63528 28.4581 2.36678 28.951 2.65679 29.2848C2.73424 29.374 2.83845 29.4338 2.97154 29.4653C2.86632 29.5524 2.79836 29.6521 2.76867 29.7661C2.65326 30.1924 3.11149 30.5185 3.35687 30.6932L3.42887 30.7463L3.49087 30.809C3.69878 31.029 4.08512 31.4362 4.49196 31.2638C4.59961 31.2175 4.68887 31.1372 4.76037 31.0205C4.81126 31.1478 4.88447 31.2421 4.98312 31.3071C5.35371 31.5471 5.80498 31.2127 6.04773 31.0342L6.11953 30.9816L6.1992 30.9425C6.47184 30.8119 6.97976 30.5709 6.94139 30.1305C6.93119 30.0124 6.88181 29.9039 6.79346 29.8C6.92947 29.792 7.04196 29.7508 7.13325 29.6767C7.47738 29.3987 7.29824 28.8661 7.20211 28.5796" fill="white"/>
<path d="M5.26636 28.9368C7.7385 30.3979 6.97713 28.7911 6.9228 28.5535C6.86807 28.3167 6.84727 26.5394 5.26636 28.9368Z" fill="#ED1C24"/>
<path d="M5.11099 29.3025C4.48533 32.1041 5.77815 30.8845 5.98667 30.7602C6.19509 30.6349 7.879 30.0654 5.11099 29.3025Z" fill="#ED1C24"/>
<path d="M4.71403 29.2686C1.85514 29.5384 3.41555 30.3916 3.59883 30.5509C3.78261 30.7097 4.84358 32.1361 4.71403 29.2686Z" fill="#ED1C24"/>
<path d="M4.62441 28.8795C3.48336 26.2445 3.15427 27.9918 3.05925 28.2163C2.96424 28.4388 1.93557 29.8896 4.62441 28.8795Z" fill="#ED1C24"/>
<path d="M45.459 28.1925L45.4182 28.1146L45.3902 28.0308C45.2999 27.7421 45.1309 27.206 44.6903 27.1824C44.5721 27.1768 44.4569 27.2097 44.342 27.2831C44.3525 27.1476 44.3268 27.0305 44.2675 26.9293C44.0394 26.5503 43.487 26.6537 43.1904 26.7083L43.1021 26.7244H43.0137C42.7129 26.7205 42.1505 26.7153 41.9923 27.1281C41.9493 27.238 41.9462 27.3581 41.9799 27.4905C41.8549 27.4384 41.7357 27.4248 41.6198 27.4514C41.1897 27.5509 41.1157 28.1087 41.0777 28.4081L41.0644 28.4957L41.0378 28.5797C40.9412 28.8661 40.7626 29.3987 41.1067 29.677C41.1979 29.7509 41.3096 29.7922 41.4464 29.8003C41.3581 29.9042 41.3088 30.0128 41.2985 30.1308C41.2604 30.5712 41.7676 30.8122 42.0407 30.9428L42.1196 30.9819L42.1914 31.0345C42.4349 31.2132 42.8866 31.5474 43.256 31.3074C43.3559 31.2424 43.4285 31.1481 43.4788 31.0208C43.5508 31.1375 43.6392 31.2178 43.7478 31.2642C44.1545 31.4365 44.5412 31.0293 44.7489 30.8093L44.8114 30.7467L44.8824 30.6935C45.1286 30.5189 45.5865 30.1927 45.4715 29.7665C45.4407 29.6522 45.3741 29.5527 45.2682 29.4656C45.4007 29.434 45.5053 29.3743 45.5823 29.2851C45.8728 28.9512 45.6047 28.4584 45.459 28.1925" fill="white"/>
<path d="M43.2735 28.6752C41.1207 26.7759 42.8835 27.0026 43.1258 26.9813C43.367 26.961 45.0648 26.4308 43.2735 28.6752Z" fill="#ED1C24"/>
<path d="M42.9739 28.9368C40.5017 30.3979 41.2616 28.7911 41.317 28.5535C41.3712 28.3167 41.3917 26.5394 42.9739 28.9368Z" fill="#ED1C24"/>
<path d="M43.1286 29.3025C43.7545 32.1041 42.4616 30.8845 42.2527 30.7602C42.0445 30.6349 40.3612 30.0654 43.1286 29.3025Z" fill="#ED1C24"/>
<path d="M43.5251 29.2686C46.3841 29.5384 44.8248 30.3916 44.6408 30.5509C44.4581 30.7097 43.3956 32.1361 43.5251 29.2686Z" fill="#ED1C24"/>
<path d="M43.6141 28.8795C44.7559 26.2445 45.0843 27.9918 45.1797 28.2163C45.2742 28.4388 46.3029 29.8896 43.6141 28.8795Z" fill="#ED1C24"/>
<path d="M44.1695 28.9617C44.1668 28.9388 44.1594 28.9183 44.1563 28.8961C44.3858 28.7274 44.6338 28.5468 44.6338 28.5468L44.61 28.4934C44.61 28.4934 44.3207 28.5439 44.0432 28.5922C43.9039 28.364 43.6665 28.2092 43.3947 28.1828C43.3084 27.9232 43.2221 27.6589 43.2221 27.6589L43.164 27.6638C43.164 27.6638 43.1249 27.9393 43.0855 28.2091C42.9185 28.2543 42.7686 28.3488 42.6546 28.4841C42.5938 28.557 42.5498 28.6395 42.5149 28.7256C42.2354 28.7256 41.94 28.7265 41.94 28.7265L41.9276 28.7841C41.9276 28.7841 42.203 28.9183 42.4573 29.0428C42.4583 29.066 42.4553 29.089 42.4573 29.1124C42.4768 29.3365 42.5817 29.5376 42.751 29.6843C42.6616 29.9636 42.561 30.2758 42.561 30.2758L42.6103 30.3055C42.6103 30.3055 42.8423 30.0653 43.0488 29.8533C43.1566 29.8887 43.2714 29.9026 43.3874 29.8923C43.5044 29.8834 43.6153 29.8484 43.7158 29.7962C43.9552 29.9686 44.2253 30.1639 44.2253 30.1639L44.2695 30.1258C44.2695 30.1258 44.1164 29.8365 43.98 29.5775C44.1215 29.4028 44.1881 29.1852 44.1695 28.9616" fill="white"/>
<path d="M43.2692 28.5316C43.1337 28.5421 43.0116 28.6061 42.9245 28.7108C42.8373 28.8146 42.7951 28.9458 42.8076 29.0806C42.8312 29.3597 43.0784 29.5672 43.3567 29.5426C43.4932 29.5301 43.6143 29.4664 43.7026 29.363C43.789 29.2583 43.831 29.1279 43.8196 28.9922C43.7952 28.713 43.5477 28.5063 43.2692 28.5316Z" fill="#ED1C24"/>
<path d="M4.96607 28.6752C7.11963 26.7759 5.35585 27.0026 5.11421 26.9813C4.87176 26.961 3.17432 26.4308 4.96607 28.6752Z" fill="#ED1C24"/>
<path d="M5.78145 29.0428C6.03763 28.9183 6.31168 28.7839 6.31168 28.7839L6.29885 28.7264C6.29885 28.7264 6.0041 28.7255 5.72388 28.7255C5.68996 28.6394 5.64583 28.5568 5.58474 28.484C5.47083 28.3487 5.32098 28.2543 5.15356 28.209C5.11519 27.939 5.07611 27.6638 5.07611 27.6638L5.01694 27.6588C5.01694 27.6588 4.93121 27.923 4.84618 28.1827C4.57263 28.2092 4.33493 28.364 4.19588 28.5922C3.91951 28.5438 3.62849 28.4933 3.62849 28.4933L3.60608 28.5467C3.60608 28.5467 3.85348 28.7274 4.0829 28.896C4.07916 28.9183 4.0725 28.9388 4.07007 28.9616C4.05109 29.1863 4.11924 29.4027 4.26051 29.5774C4.12298 29.8362 3.9699 30.1257 3.9699 30.1257L4.01524 30.1638C4.01524 30.1638 4.28475 29.9685 4.52396 29.7961C4.62454 29.8487 4.73531 29.8824 4.85194 29.8923C4.96887 29.9028 5.08338 29.8886 5.19123 29.8532C5.39712 30.0653 5.62877 30.3055 5.62877 30.3055L5.67956 30.2757C5.67956 30.2757 5.57878 29.9634 5.48891 29.6851C5.65785 29.5373 5.76266 29.3362 5.78256 29.1121C5.78498 29.0889 5.78141 29.0661 5.78141 29.0428" fill="white"/>
<path d="M5.31542 28.7109C5.22797 28.6061 5.10649 28.5419 4.97037 28.5316C4.69218 28.5064 4.44469 28.7131 4.42045 28.9924C4.40895 29.1281 4.45084 29.2585 4.53718 29.3632C4.62442 29.4666 4.74711 29.5303 4.88253 29.5427C5.16072 29.5673 5.40811 29.3597 5.43225 29.0807C5.44366 28.9458 5.40206 28.8147 5.31542 28.7109Z" fill="#ED1C24"/>
<path d="M5.28082 16.728C4.07726 16.5155 2.9248 17.3234 2.71214 18.527C2.49979 19.7313 3.3068 20.8837 4.51046 21.0963C5.71513 21.3087 6.8681 20.5012 7.08005 19.297C7.29311 18.0933 6.48559 16.9409 5.28082 16.728Z" fill="white"/>
<path d="M5.78296 18.4055C5.76348 18.3936 5.72954 18.3716 5.68844 18.3444C5.50658 18.2238 5.15002 17.9881 5.14023 17.981C5.09085 17.9471 5.04279 17.9147 4.99543 17.8828C4.83689 17.7766 4.69512 17.6842 4.56183 17.6073C4.51043 17.5781 4.46075 17.5508 4.41076 17.5264C4.19881 17.4194 3.99564 17.3548 3.75582 17.3337C3.57093 17.4672 3.41048 17.6325 3.28052 17.8236C3.83196 18.0227 4.37037 18.3416 5.49143 19.0379C5.55555 18.8897 5.77013 18.4333 5.78296 18.4055Z" fill="#ED1C24"/>
<path d="M5.26603 19.5942C5.28844 19.5384 5.387 19.2889 5.42729 19.1929C4.27847 18.4793 3.745 18.1635 3.19235 17.9681C3.10662 18.122 3.04239 18.29 3.00049 18.4687C3.31594 18.9018 4.16133 19.3273 5.26603 19.5942Z" fill="#ED1C24"/>
<path d="M5.14164 17.7807C5.57181 17.5262 6.06054 17.5955 6.4378 17.7243C6.29713 17.5426 6.12679 17.3839 5.92867 17.2603C5.57232 17.1894 5.08015 17.1783 4.68835 17.4897C4.83084 17.5734 4.97796 17.671 5.14164 17.7807Z" fill="#ED1C24"/>
<path d="M3.42517 19.836C3.48273 19.8755 3.5417 19.9131 3.60441 19.9483C3.73103 20.0183 3.86816 20.0788 4.00984 20.1306C4.06992 20.1533 4.13101 20.1744 4.1926 20.1943C4.40809 20.2652 4.90258 20.3936 4.93944 20.4022C4.94702 20.3833 5.13231 19.925 5.20259 19.7509C4.34609 19.5385 3.40821 19.1667 2.96259 18.6832C2.93583 18.9064 2.94623 19.1273 2.99339 19.3367C3.0874 19.5415 3.23836 19.7047 3.42517 19.836Z" fill="#ED1C24"/>
<path d="M4.96834 20.5812L4.78961 20.5352C4.62391 20.4931 4.44426 20.4459 4.2616 20.3899C4.35066 20.5797 4.49082 20.7276 4.64026 20.8421C4.8405 20.8687 5.03812 20.8636 5.22806 20.8308C5.09083 20.7241 4.96834 20.5812 4.96834 20.5812" fill="#ED1C24"/>
<path d="M6.75973 18.3466C6.71903 18.2136 6.66562 18.0848 6.59847 17.9647C6.2608 17.8141 5.74651 17.667 5.29736 17.8867L5.91686 18.2958C6.04602 18.2843 6.16487 18.2807 6.27362 18.2834C6.33299 18.2843 6.38813 18.2875 6.44084 18.2927C6.56211 18.3034 6.66562 18.3229 6.75973 18.3466" fill="#ED1C24"/>
<path d="M6.44251 18.4599C6.42443 19.4779 5.94449 20.2631 5.53088 20.7544C6.17825 20.5294 6.6888 19.9715 6.81613 19.2508C6.85976 19.0045 6.85208 18.7623 6.80644 18.5318C6.70587 18.5005 6.5856 18.4743 6.44252 18.4599" fill="#ED1C24"/>
<path d="M4.53361 17.4035C4.82352 17.1479 5.16593 17.0616 5.48169 17.0545C5.40151 17.0289 5.31982 17.0067 5.2347 16.9923C4.78444 16.9128 4.34397 16.9965 3.96985 17.1992C4.16908 17.2382 4.34912 17.3081 4.53361 17.4035Z" fill="#ED1C24"/>
<path d="M5.94042 18.4609C5.7931 18.7678 5.70646 18.9557 5.63456 19.1267C5.61245 19.1785 5.59094 19.2288 5.56923 19.2811C5.5349 19.3668 5.42907 19.6333 5.42907 19.6333L5.36596 19.7897L5.09241 20.4673C5.16784 20.5674 5.25922 20.649 5.34909 20.7127C5.75553 20.2491 6.26133 19.47 6.27678 18.4501C6.17449 18.4465 6.062 18.4502 5.94042 18.4609" fill="#ED1C24"/>
<path d="M4.05656 20.3225C3.92014 20.2756 3.78392 20.222 3.65527 20.1593C3.70334 20.3078 3.77261 20.4396 3.84238 20.5526C3.9883 20.6463 4.14845 20.7201 4.3194 20.7728C4.20863 20.648 4.11301 20.5003 4.05656 20.3225Z" fill="#ED1C24"/>
<path d="M3.45461 20.0497C3.36212 19.9942 3.27608 19.9325 3.19641 19.8648C3.28659 20.026 3.40019 20.1739 3.53196 20.3035C3.50066 20.2226 3.47319 20.1389 3.45461 20.0497Z" fill="#ED1C24"/>
<path d="M40.9191 19.2971C41.1319 20.5012 42.284 21.3088 43.4879 21.0963C44.6922 20.8838 45.499 19.7314 45.2876 18.527C45.075 17.3235 43.9223 16.5155 42.718 16.7281C41.5138 16.9409 40.7069 18.0932 40.9191 19.2971Z" fill="white"/>
<path d="M42.2161 18.4055C42.2352 18.3936 42.2693 18.3716 42.3113 18.3444C42.4933 18.2238 42.8493 17.9881 42.8584 17.981C42.9089 17.9471 42.957 17.9147 43.0043 17.8828C43.1611 17.7766 43.3041 17.6842 43.4376 17.6073C43.4889 17.5781 43.5392 17.5508 43.5883 17.5264C43.7997 17.4194 44.004 17.3548 44.2434 17.3337C44.4282 17.4672 44.5894 17.6325 44.7175 17.8236C44.1665 18.0227 43.6297 18.3416 42.5072 19.0379C42.4429 18.8897 42.2293 18.4333 42.2161 18.4055Z" fill="#ED1C24"/>
<path d="M42.7334 19.5942C42.7107 19.5384 42.6113 19.2889 42.5732 19.1929C43.7198 18.4793 44.2549 18.1635 44.8072 17.9681C44.8924 18.122 44.957 18.29 44.999 18.4687C44.6831 18.9018 43.8378 19.3273 42.7334 19.5942Z" fill="#ED1C24"/>
<path d="M42.8578 17.7807C42.4272 17.5262 41.9389 17.5955 41.561 17.7243C41.7019 17.5426 41.8733 17.3839 42.0713 17.2603C42.4272 17.1894 42.9191 17.1783 43.3104 17.4897C43.169 17.5734 43.0209 17.671 42.8578 17.7807Z" fill="#ED1C24"/>
<path d="M44.5731 19.836C44.5168 19.8755 44.4581 19.9131 44.3942 19.9483C44.2682 20.0183 44.1313 20.0788 43.9899 20.1306C43.9293 20.1533 43.8678 20.1744 43.8063 20.1943C43.592 20.2652 43.097 20.3936 43.0598 20.4022C43.0516 20.3833 42.8657 19.925 42.7969 19.7509C43.6531 19.5385 44.5902 19.1667 45.0372 18.6832C45.0638 18.9064 45.0523 19.1273 45.006 19.3367C44.9117 19.5415 44.761 19.7047 44.5731 19.836Z" fill="#ED1C24"/>
<path d="M43.0314 20.5812L43.2089 20.5352C43.3751 20.4931 43.5558 20.4459 43.7386 20.3899C43.6482 20.5797 43.5087 20.7276 43.3595 20.8421C43.1596 20.8687 42.9614 20.8636 42.7725 20.8308C42.9081 20.7241 43.0314 20.5812 43.0314 20.5812" fill="#ED1C24"/>
<path d="M41.2396 18.3466C41.2806 18.2136 41.3331 18.0848 41.4019 17.9647C41.7386 17.8141 42.2517 17.667 42.7012 17.8867L42.0823 18.2958C41.9529 18.2843 41.8342 18.2807 41.7251 18.2834C41.6666 18.2843 41.6111 18.2875 41.5577 18.2927C41.4366 18.3034 41.3342 18.3229 41.2396 18.3466" fill="#ED1C24"/>
<path d="M41.5569 18.4599C41.5745 19.4779 42.0557 20.2631 42.4697 20.7544C41.8206 20.5294 41.3094 19.9715 41.1834 19.2508C41.1402 19.0045 41.1464 18.7623 41.1935 18.5318C41.2933 18.5005 41.4144 18.4743 41.5569 18.4599" fill="#ED1C24"/>
<path d="M43.4663 17.4035C43.1762 17.1479 42.8331 17.0616 42.5178 17.0545C42.5977 17.0289 42.679 17.0067 42.7649 16.9923C43.2148 16.9128 43.6551 16.9965 44.0292 17.1992C43.8307 17.2382 43.6503 17.3081 43.4663 17.4035Z" fill="#ED1C24"/>
<path d="M42.059 18.4609C42.2067 18.7678 42.2918 18.9557 42.3661 19.1267C42.3874 19.1785 42.4079 19.2288 42.4296 19.2811C42.4645 19.3668 42.5702 19.6333 42.5702 19.6333L42.633 19.7897L42.9071 20.4673C42.8312 20.5674 42.7405 20.649 42.6503 20.7127C42.2441 20.2491 41.7374 19.47 41.7231 18.4501C41.8249 18.4465 41.9379 18.4502 42.059 18.4609" fill="#ED1C24"/>
<path d="M43.9429 20.3225C44.0795 20.2756 44.2147 20.222 44.3445 20.1593C44.2951 20.3078 44.2272 20.4396 44.1564 20.5526C44.0107 20.6463 43.8505 20.7201 43.6803 20.7728C43.7909 20.648 43.8864 20.5003 43.9429 20.3225Z" fill="#ED1C24"/>
<path d="M44.5454 20.0497C44.6367 19.9942 44.7229 19.9325 44.803 19.8648C44.7126 20.026 44.5998 20.1739 44.4675 20.3035C44.4982 20.2226 44.5259 20.1389 44.5454 20.0497Z" fill="#ED1C24"/>
</g>
<defs>
<clipPath id="clip0_4_7819">
<rect width="48" height="48" fill="white"/>
</clipPath>
</defs>
</svg>
