<svg width="48" height="48" viewBox="0 0 48 48" fill="none" xmlns="http://www.w3.org/2000/svg">
<g clip-path="url(#clip0_4_7909)">
<path d="M47.3379 23.9997C47.3379 36.8896 36.8894 47.3381 24.0001 47.3381C11.1108 47.3381 0.661743 36.8896 0.661743 23.9997C0.661743 11.1104 11.1108 0.661942 24.0001 0.661942C36.8894 0.66177 47.3379 11.1104 47.3379 23.9997Z" fill="white" stroke="#0053A0" stroke-width="1.20455"/>
<path fill-rule="evenodd" clip-rule="evenodd" d="M2.41885 24.2757C2.26804 12.3596 11.8091 2.57364 23.7258 2.42255C35.6418 2.27169 45.4278 11.8134 45.5789 23.7295C45.7294 35.6455 36.188 45.4315 24.272 45.582C12.3559 45.7331 2.56993 36.1917 2.41885 24.2757H2.41879H2.41885ZM23.7223 2.15344C11.6575 2.30618 1.99694 12.2142 2.14974 24.2791C2.30259 36.344 12.2105 46.0039 24.2754 45.8517C36.3402 45.6989 46.0002 35.7909 45.848 23.7261C45.6952 11.6612 35.7872 2.00064 23.7223 2.15344Z" fill="#0053A0"/>
<path fill-rule="evenodd" clip-rule="evenodd" d="M23.2076 9.65826C20.5582 9.65199 17.48 10.7022 15.4109 12.4149C15.4041 12.4195 15.4041 12.4377 15.4183 12.4451C16.6014 12.9144 17.4127 13.537 18.6773 14.2451C18.7229 14.2702 18.7388 14.2593 18.7485 14.2183C19.3603 11.111 23.1535 11.9731 23.5075 9.70729C23.4921 9.6919 23.4944 9.66396 23.4619 9.66225C23.3781 9.65997 23.2926 9.65883 23.2076 9.65826ZM24.7852 9.66225C24.759 9.66225 24.7505 9.67309 24.7516 9.71471C24.5925 10.1138 25.0601 10.5294 25.3326 10.7986C25.3588 10.8231 25.4021 10.8516 25.4346 10.8658C27.128 11.5551 29.002 12.0643 29.4125 14.0119C29.4211 14.0421 29.4268 14.0615 29.4582 14.0347C30.3607 13.436 31.2558 12.8288 32.1692 12.253C32.216 12.2336 32.1988 12.2119 32.1692 12.1931C30.1053 10.7256 27.5265 9.77058 24.7852 9.66225ZM14.2256 13.4013C12.5744 14.8654 11.1576 16.7805 10.4197 18.9323C10.4114 18.9534 10.424 18.963 10.4534 18.9659C12.0692 19.1119 12.5972 17.0046 13.8356 16.2212C13.8521 16.2115 13.8669 16.203 13.8658 16.183C13.778 15.2229 13.7358 14.4138 14.2256 13.4013ZM34.1573 13.8619C34.2485 14.6071 34.179 15.3141 33.9811 16.0028C33.9726 16.0353 33.9737 16.0604 34.0108 16.0855C35.2047 16.7241 35.8518 18.589 37.2315 18.662C37.2486 18.6694 37.2749 18.6706 37.2652 18.6478C36.7862 16.9835 35.4088 15.0142 34.1573 13.8619ZM37.7082 19.7384C36.0148 21.4363 38.7629 24.2814 35.0348 25.8692C34.7058 25.9661 34.3899 26.0813 34.0923 26.0825C33.2633 26.0864 32.0837 25.4542 32.0911 26.7125C32.0911 26.7353 32.1116 26.7512 32.139 26.7621C33.2907 27.2552 34.8472 28.3243 34.8723 29.972C34.9287 31.9361 32.8614 33.2589 33.1892 35.1244C37.6073 31.3039 39.4243 25.6628 37.7082 19.7384ZM10.0892 20.019C10.0749 20.0229 10.0645 20.0383 10.0516 20.0686C8.37849 24.6406 10.0225 31.748 15.1548 35.5024C15.156 35.4055 15.2124 35.2036 15.2712 35.068C15.2928 35.0155 15.2894 34.9482 15.2712 34.8844C15.083 34.0577 14.5898 33.2241 14.1206 32.4128C12.5018 29.7257 13.4005 27.883 16.0141 26.6874C16.0477 26.6765 16.0551 26.6577 16.0369 26.623C15.9964 26.534 15.9565 26.4462 15.9171 26.3561C15.9052 26.3322 15.9171 26.2843 15.8573 26.2928C15.2712 26.3658 14.6115 26.4177 14.0151 26.3909C13.1177 26.1908 12.2607 25.8333 11.6153 24.8829C10.46 23.2699 12.0422 21.1005 10.1341 20.0309C10.1183 20.0218 10.1035 20.0155 10.0892 20.019ZM34.2844 26.6275C34.3278 26.6275 34.3722 26.6338 34.4156 26.6458C34.9948 26.7512 35.8712 27.0922 36.3917 27.7365C36.4253 27.7781 36.4099 27.8128 36.3581 27.8083C35.5217 27.7832 34.5821 27.6908 33.9315 27.1783C33.8392 27.1053 33.7542 27.0329 33.8192 26.859C33.8671 26.749 34.0205 26.6646 34.1487 26.6418C34.1955 26.6338 34.24 26.6264 34.2844 26.6275ZM13.5956 26.9685C13.6423 26.9673 13.6879 26.9685 13.7347 26.9719C13.7734 26.9764 13.8128 26.9764 13.839 27.0021C13.9998 27.1937 13.9679 27.4616 13.6674 27.6692C13.0328 28.0757 12.2972 28.0985 11.6197 28.1276C11.5931 28.1287 11.5467 28.0996 11.5934 28.0557C12.2108 27.4901 12.8937 26.9753 13.5956 26.9685ZM25.0675 34.6746C25.0589 34.6734 25.0492 34.6757 25.0412 34.682C24.5213 34.9288 23.7042 35.0491 23.2447 34.7909C23.1894 34.7635 23.1569 34.784 23.1352 34.816C22.3097 36.2139 20.3478 36.1809 18.9549 35.8257C17.9201 35.5925 16.9075 35.2972 16.0711 36.1256C20.4259 39.2659 27.1388 39.364 32.1772 35.9083C31.2267 35.4596 30.3641 35.7823 29.319 36.0247C28.136 36.2995 26.4752 36.5481 25.1347 34.7048C25.1119 34.6985 25.0914 34.6757 25.0675 34.6746ZM24.1974 34.9893C24.2094 34.9904 24.2225 34.9916 24.2385 34.9927C24.3896 35.0104 24.4756 35.0873 24.568 35.1917C24.6125 35.2504 24.6284 35.3188 24.621 35.3912C24.596 36.0366 24.4853 36.6894 24.2681 37.2545C24.2636 37.2813 24.2442 37.287 24.2345 37.2545C23.9825 36.4591 23.552 35.6541 24.0954 35.0275C24.1301 34.9973 24.1592 34.9876 24.1974 34.9893Z" fill="#0053A0"/>
<path fill-rule="evenodd" clip-rule="evenodd" d="M25.592 3.64346C25.7214 3.81433 25.8508 4.00453 25.8052 4.20961C25.6387 5.14779 25.4597 6.08402 25.2693 7.01849C25.2356 7.22716 25.084 7.31668 24.9317 7.45693C25.958 7.64337 27.8777 8.00598 28.9074 8.19983C28.88 7.79332 29.1907 7.55557 29.3156 7.18725C28.9735 7.42672 28.5368 7.51452 28.1308 7.42729C27.7084 7.34747 26.6621 7.13936 26.2408 7.05213C26.3092 6.72544 26.3525 6.39247 26.4284 6.06578C26.8389 6.13819 27.4997 6.29384 27.909 6.34344C28.258 6.42611 28.5219 5.94149 28.7118 5.71343C28.5784 5.74365 28.3275 5.75904 28.1913 5.72825C27.7614 5.64484 26.9888 5.48212 26.5589 5.39472C26.5971 5.08325 26.6633 4.77605 26.7283 4.47216C27.4649 4.66584 29.0049 4.73808 29.5516 5.3572C29.5699 5.0154 29.3766 4.59075 29.571 4.36349C28.5533 4.16594 26.6097 3.83331 25.592 3.64346ZM25.1011 3.65845C24.1204 3.66301 22.2412 3.76621 21.2611 3.77847C21.471 4.12358 21.1591 4.42661 21.1517 4.77217C21.4841 4.47062 22.3136 4.38037 22.7452 4.39348C22.7441 5.33941 22.8416 6.28927 22.8547 7.2323C22.8604 7.41075 22.7213 7.52421 22.6073 7.59605C23.0337 7.59149 23.7076 7.53903 24.1073 7.53219C23.9106 7.35146 23.8108 7.33663 23.8074 7.08235C23.7379 6.21174 23.7031 5.19676 23.6791 4.32963C24.1204 4.29747 24.9317 4.37666 25.2921 4.59588C25.2904 4.21503 24.9221 3.83622 25.1011 3.65845ZM20.8113 3.91348C20.1847 4.05014 18.789 4.14832 18.2491 4.55848C17.6037 5.00656 17.4548 6.00078 18.2913 6.43694C18.8181 6.65246 19.8175 6.41813 20.3381 6.45975C20.6961 6.47457 20.8472 6.9706 20.6117 7.21348C20.1032 7.66561 18.7217 7.66561 18.1185 7.48316C18.2662 7.82924 18.4315 8.128 18.5877 8.46951C18.793 8.34066 19.1573 8.30873 19.3894 8.26711C19.8837 8.19527 21.0547 7.87827 21.3849 7.47974C21.7794 7.01621 21.7988 6.34458 21.4145 5.91982C21.069 5.54124 19.9988 5.60812 19.5439 5.63845C19.2844 5.63845 19.0701 5.72996 18.8238 5.60846C18.614 5.4641 18.6259 5.10371 18.8608 4.98216C19.3124 4.74293 20.3358 4.70592 20.8073 4.8996C20.7799 4.56926 20.8221 4.24382 20.8113 3.91348ZM30.9052 4.75718C30.9895 4.96608 31.0386 5.16335 30.9388 5.36091C30.5671 6.16213 30.1446 6.95749 29.7512 7.76481C29.6406 8.00028 29.4992 8.14966 29.2375 8.2483C29.5864 8.42675 30.1856 8.72608 30.538 8.90453C30.3903 8.36518 30.7564 7.88112 30.9656 7.4461C31.1669 7.55614 31.7068 7.80814 31.8391 8.02708C32.0164 8.32698 32.0597 8.63485 32.0979 8.94558C32.115 9.22667 32.1378 9.43876 31.8476 9.53854C32.2553 9.70445 32.8961 10.046 33.2753 10.2284C32.9742 9.60809 33.1601 8.76428 32.7581 8.15479C33.0198 8.1662 33.4588 8.2101 33.7371 8.03848C34.2399 7.74372 34.3625 7.27734 34.1909 6.66215C34.0963 6.33831 33.7781 6.15358 33.5079 6.02473C32.8625 5.70545 31.5511 5.07241 30.9052 4.75718ZM16.2017 5.16962C15.302 5.67483 13.5727 6.539 12.6848 7.05954C12.9165 7.12055 13.0773 7.20721 13.1873 7.40847C13.6314 8.20611 14.0745 9.00317 14.5146 9.8008C14.6286 9.99864 14.5939 10.237 14.5038 10.457C15.4268 9.94448 17.155 9.04593 18.0809 8.53736C17.7918 8.37316 17.9754 7.82525 17.8591 7.46492C17.7679 7.77964 17.4429 8.06585 17.1778 8.2597C16.7479 8.54819 15.7387 9.06246 15.2911 9.31732C15.1281 9.02826 14.9622 8.73235 14.8077 8.43587C15.1566 8.21922 15.9656 7.86117 16.3077 7.63368C16.5078 7.38281 16.3904 7.02077 16.4349 6.72601C16.3471 6.83205 16.233 6.92784 16.1082 6.99226C15.733 7.20094 14.9097 7.65705 14.5294 7.86231C14.3852 7.58864 14.2124 7.32922 14.0876 7.04472C14.7826 6.72943 16.0289 5.88561 16.8208 5.93065C16.623 5.64227 16.3049 5.51148 16.2017 5.16962ZM31.7188 5.89701C32.062 6.06863 32.566 6.2927 32.8779 6.46317C33.7051 6.89306 33.1168 7.79218 32.5181 7.45351C32.176 7.33948 31.5774 7.00139 31.2438 6.86455C31.3875 6.53045 31.5711 6.23112 31.7188 5.89701ZM11.8714 7.66333C11.7764 7.80016 11.6519 7.92502 11.5038 8.00484C11.0091 8.23518 10.1228 9.03453 9.91016 9.53854C9.61386 10.1155 9.61699 10.6463 9.96632 11.3197C10.3645 12.1139 10.929 12.4822 11.7926 12.4822C12.6505 12.4292 13.423 11.6777 13.7759 11.2148C13.9703 10.9907 14.1591 10.7438 14.4441 10.6184C14.2047 10.3527 13.9527 10.1007 13.7086 9.83843C13.6214 10.1571 13.4675 10.4314 13.2588 10.6971C12.9504 11.0471 12.4717 11.5973 11.9276 11.5711C11.3834 11.5443 11.2102 11.2849 10.9676 11.0198C10.725 10.7547 10.558 10.4451 10.6002 9.96957C10.6422 9.49407 11.5849 8.61604 12.2653 8.58981C12.1092 8.29334 12.0276 7.96322 11.8714 7.66333ZM8.56017 10.8618C8.31187 11.1823 7.87064 11.7393 7.60763 12.0477C7.85182 12.0118 8.07418 12.0324 8.26016 12.1783C8.97427 12.7342 9.68741 13.2958 10.3976 13.8551C10.58 13.9931 10.6624 14.1995 10.6863 14.4355C10.9491 14.1225 11.3722 13.574 11.6276 13.269C11.4064 13.2981 11.191 13.3101 11.0201 13.1721C10.2947 12.6128 9.58159 12.0443 8.86018 11.481C8.66286 11.3311 8.55282 11.1281 8.56017 10.8618ZM6.86519 13.0147C6.41266 13.9446 5.47631 15.6727 5.03148 16.6026C5.2783 16.5046 5.46371 16.5223 5.68766 16.6363C6.49259 17.0394 7.30152 17.4311 8.10634 17.829C8.30383 17.9288 8.47676 18.1266 8.55629 18.3319C9.005 17.3866 9.83285 15.7138 10.3489 14.7765C10.2426 14.7765 10.136 14.6875 10.0602 14.6123C9.8475 14.4104 9.7402 14.1801 9.52389 13.9823C9.5841 14.3574 9.52988 14.8067 9.3663 15.171C9.17621 15.577 8.67152 16.561 8.48144 16.9675C8.1662 16.8609 7.92263 16.6796 7.61892 16.5428C7.77103 16.179 8.22042 15.3546 8.3763 14.9948C8.37801 14.7839 8.1272 14.4275 7.94892 14.1727C7.94122 14.3095 7.88227 14.4486 7.81761 14.5746C7.62371 14.9697 7.18663 15.8444 6.98891 16.2355C6.7117 16.0952 6.35108 15.9595 6.07394 15.8227C6.26784 15.4281 6.75743 14.4407 6.95892 14.0495C7.11478 13.7422 7.36738 13.4851 7.6789 13.3294C7.3561 13.1994 7.14226 13.2394 6.86519 13.0147ZM7.44634 18.1854C7.57558 18.3946 7.60375 18.7487 7.61145 18.999C7.64554 19.4711 7.36858 20.3662 7.29634 20.8257C6.42669 20.6552 5.55243 20.4454 4.68638 20.2556C4.4472 20.21 4.35073 20.0178 4.21019 19.8126C4.11903 20.2043 3.96372 20.9443 3.88025 21.3394C4.05494 21.2106 4.18516 21.1102 4.39024 21.1558C5.31685 21.3503 6.23854 21.5538 7.1615 21.763C7.3741 21.8086 7.58746 21.9706 7.6976 22.1718C7.89516 21.2756 8.26518 19.6375 8.45886 18.7367C8.36399 18.7447 8.26496 18.7606 8.18143 18.7076C7.91169 18.5588 7.71984 18.3262 7.44634 18.1854H7.44634Z" fill="#0053A0"/>
<path fill-rule="evenodd" clip-rule="evenodd" d="M7.45717 25.8658C7.32685 26.0528 7.14001 26.2062 6.91718 26.2484C6.06948 26.4884 5.16546 26.672 4.19849 26.9046C4.00441 26.9742 3.88696 26.8926 3.70349 26.7512C3.78924 27.1435 3.9214 27.7832 4.01473 28.1755C4.35904 27.6931 5.00006 27.7114 5.50715 27.542C5.62762 27.9485 5.76936 28.8009 5.90471 29.1989C6.11749 29.4201 6.47075 29.4509 6.74841 29.5484C6.67631 29.44 6.54071 29.2097 6.51971 29.0791C6.42121 28.6493 6.23545 27.8288 6.13716 27.4029C6.46151 27.3305 6.77937 27.2347 7.1084 27.1891C7.28254 27.8693 7.69041 29.1356 7.3747 29.7844C7.7058 29.6789 7.97888 29.314 8.27468 29.391C8.07969 28.4776 7.63714 26.7872 7.45714 25.8658H7.45713H7.45717ZM7.50217 30.0244C7.39393 30.021 7.28485 30.0307 7.17589 30.0427C6.44177 30.2001 5.75971 30.5621 5.44721 31.3289C5.03539 32.3985 5.84882 34.0434 6.93974 34.4454C7.64124 34.6962 8.33511 34.5081 8.85588 34.1192C9.33959 33.788 9.66766 33.2344 9.65471 32.492C9.62438 31.6545 9.15612 30.8238 8.47343 30.3511C8.14873 30.1231 7.82711 30.033 7.50219 30.0244H7.50218H7.50217ZM7.47217 30.9583C7.87704 30.9561 8.28827 31.0593 8.56713 31.4755C8.91384 31.9065 9.01903 32.512 8.77341 32.8746C8.42448 33.333 7.86203 33.6067 7.26971 33.5827C6.62567 33.5599 5.97314 32.7355 6.16345 31.9447C6.34442 31.3004 7.07535 30.9908 7.47217 30.9583ZM10.011 34.0748C9.8527 34.0793 9.69859 34.1107 9.54585 34.1683C8.81326 34.4385 8.27567 34.9112 8.06101 35.7208C7.76003 36.8286 8.97154 38.283 10.1158 38.4883C10.8505 38.612 11.5009 38.3469 11.9456 37.8725C12.3644 37.462 12.6247 36.848 12.482 36.1182C12.3056 35.2989 11.6433 34.5964 10.8884 34.2509C10.5554 34.1272 10.2746 34.0651 10.011 34.0748ZM10.3747 34.971C10.695 34.9722 10.9862 35.1005 11.2034 35.3274C11.6045 35.698 11.7936 36.1529 11.6084 36.6353C11.3534 37.202 10.8795 37.568 10.2921 37.6484C9.65394 37.7368 8.82911 36.8924 8.91583 36.1963C9.01977 35.5577 9.43626 35.2972 9.77841 35.1164C9.98109 35.0178 10.1824 34.9699 10.3747 34.971ZM13.2249 36.6245C13.2187 36.9893 12.8447 36.8816 12.5491 37.3411C12.9929 37.2967 13.7369 37.6923 14.0841 37.9518C13.5682 38.7351 13.0317 39.5008 12.5084 40.2762C12.4112 40.4393 12.2408 40.4575 12.062 40.4718C12.3884 40.6976 12.9809 41.0933 13.3076 41.319C13.2426 41.0585 13.2666 40.8424 13.4085 40.6292C13.8703 39.9461 14.3384 39.2648 14.7991 38.5783C14.8253 38.5504 14.847 38.486 14.8977 38.5025C15.2758 38.7078 15.8659 39.2215 15.9993 39.6354C16.1578 39.3304 16.1276 38.8435 16.4189 38.7243C15.6161 38.1713 14.0311 37.1655 13.2249 36.6245ZM16.6184 38.8925C16.7359 39.1063 16.7057 39.3509 16.6373 39.5755C16.375 40.4536 16.0409 41.2432 15.7781 42.1184C15.7193 42.3305 15.5865 42.4565 15.3174 42.5192C16.1504 42.7832 17.1173 43.1355 17.9982 43.4046C18.9104 43.7 19.7297 43.4799 19.8284 42.5226C19.886 41.973 19.3004 41.7187 19.0712 41.5961C19.6744 41.6708 20.0804 41.3487 20.1129 40.7825C20.1642 40.3794 19.797 39.9387 18.9657 39.669C18.3694 39.4746 17.2194 39.0607 16.6184 38.8925ZM29.2409 39.5824C28.8543 39.6821 28.2078 39.9524 27.8275 40.0818C28.0396 40.173 28.1861 40.2352 28.258 40.449C28.5294 41.2734 28.8572 42.0426 29.1389 42.8647C29.2158 43.1235 29.3105 43.4166 29.1691 43.6709C30.0448 43.4012 31.5643 42.8527 32.432 42.5648C32.3824 42.4924 32.3072 42.4337 32.3117 42.3424C32.29 42.0329 32.3682 41.782 32.3419 41.469C32.1412 41.8863 31.6999 42.1001 31.2507 42.2752C30.9975 42.3567 30.286 42.6737 30.0351 42.6988C29.758 41.8647 29.4279 40.9866 29.1474 40.1525C29.0704 39.9364 29.1269 39.7853 29.2409 39.5824ZM17.444 39.856C17.7644 39.9689 18.6772 40.1776 18.9885 40.3076C19.4224 40.4872 19.1408 41.2649 18.6881 41.1651C18.3705 41.1138 17.4788 40.8641 17.1812 40.7523C17.265 40.4536 17.3517 40.1525 17.444 39.856ZM21.6916 40.3076C21.7195 40.3652 21.7024 40.5054 21.6545 40.5687L20.0239 43.3288C19.8785 43.5654 19.7417 43.6732 19.5393 43.8282C19.911 43.8858 20.5542 44.0706 20.9276 44.1424C20.8073 43.8807 20.8181 43.5569 21.0126 43.3071C21.5884 43.3579 22.6648 43.436 23.2373 43.5055C23.3536 43.7775 23.5024 44.1042 23.2373 44.3528C23.6164 44.3499 24.2778 44.3357 24.6472 44.3608C24.4808 44.1629 24.3188 43.9639 24.2493 43.7079C24.076 43.1971 23.4317 41.2997 23.2293 40.7118C23.1945 40.6052 23.2413 40.4729 23.2447 40.461L21.6916 40.3076ZM26.0008 40.3287C25.5846 40.3971 24.8764 40.4792 24.4785 40.5282C24.6678 40.6611 24.808 40.7432 24.8348 40.9673C24.9329 41.8287 25.1068 42.6543 25.2174 43.5164C25.2402 43.7861 25.2448 44.1327 25.0555 44.3528C25.9677 44.2661 27.6462 43.9936 28.5545 43.8881C28.5197 43.8077 28.4609 43.7319 28.4838 43.6447C28.5248 43.3362 28.64 43.0711 28.6782 42.7592C28.3771 43.1036 27.9415 43.2883 27.4672 43.371C27.1952 43.4166 26.4016 43.5449 26.1547 43.5392C26.0515 42.6652 25.9004 41.7427 25.7944 40.8692C25.7647 40.6411 25.8485 40.5043 26.0008 40.3287ZM22.3592 40.9707L23.024 42.7815C22.6084 42.7575 21.8142 42.7085 21.3991 42.6617L22.3592 40.9707ZM17.0347 41.3276C17.4161 41.4764 18.0489 41.6908 18.3882 41.8219C19.1311 42.0808 18.9355 43.0768 18.0353 42.7672C17.631 42.6389 17.0922 42.4707 16.7085 42.3248C16.8009 41.9981 16.9423 41.6571 17.0347 41.3276Z" fill="#0053A0"/>
<path fill-rule="evenodd" clip-rule="evenodd" d="M36.9653 8.91936C36.3775 8.89428 35.9886 9.0562 35.5781 9.40342C35.1186 9.82133 34.8056 10.3065 34.809 11.0346C34.8244 11.6082 35.451 12.5096 36.2047 12.9851C36.4168 13.1419 36.7532 13.3374 36.7851 13.5991C37.0348 13.3437 37.2954 13.0917 37.5508 12.8528C36.9391 12.6692 35.9031 12.0751 35.7543 11.3909C35.6596 10.8465 35.7931 10.6686 36.0245 10.371C36.4567 9.84927 36.8946 9.66055 37.5508 9.84186C38.1375 10.0756 38.6632 10.8105 38.7088 11.3459C39.0138 11.1863 39.3029 11.0591 39.6125 10.9035C39.3667 10.7512 39.2584 10.5688 39.0919 10.3481C38.7316 9.82304 38.0537 9.0733 37.2315 8.94217C37.1392 8.93133 37.0491 8.92335 36.9653 8.91936ZM40.2014 11.7211C40.1895 12.1053 39.9871 12.2239 39.7111 12.4292C39.0412 12.8876 38.4066 13.3545 37.7384 13.7987C37.5485 13.9195 37.3028 14.0746 37.0326 13.9446C37.2498 14.2822 37.6791 14.8523 37.8992 15.1858C37.922 14.8415 38.1067 14.6852 38.3154 14.5484C39.0378 14.0661 39.7168 13.5455 40.4415 13.0677C40.6507 12.9263 40.7704 12.8648 41.0487 12.9583C40.8331 12.6287 40.4187 12.0512 40.2014 11.7211ZM41.4843 13.5284C41.2841 13.8306 40.84 13.647 40.5247 13.7685C40.9084 13.9845 41.332 14.6778 41.4917 15.0849C40.6336 15.4869 39.9243 15.8478 39.0651 16.2549C38.9021 16.3375 38.6444 16.2851 38.4773 16.2212C38.6546 16.581 38.9511 17.2138 39.129 17.5713C39.2236 17.2942 39.5007 17.0588 39.759 16.9447C40.527 16.5958 41.1593 16.2583 41.9347 15.9287C42.1314 16.3159 42.4615 17.0445 42.3509 17.4812C42.6474 17.3022 42.7927 16.9122 43.1308 16.9487C42.7203 16.0593 41.8988 14.4167 41.4843 13.5284ZM43.3481 17.3758C43.2665 17.7486 42.9279 17.9636 42.7181 18.2418C42.2979 18.7327 41.7927 19.2858 41.3007 19.7829C41.1832 19.893 40.8919 19.9277 40.7151 19.9676C40.3491 20.0207 40.1786 20.0634 39.8981 19.8285C39.9859 20.2231 40.1296 20.9266 40.2088 21.3212C40.3651 21.0846 40.5315 20.9454 40.8389 20.8673C41.1125 20.8183 41.3548 20.7128 41.5515 20.7989C42.4495 21.2875 44.1343 21.9837 44.3452 22.2021L44.0379 20.7282C43.9382 20.8725 43.8207 20.942 43.701 20.8964C43.1622 20.6877 42.5225 20.3901 42.0652 20.2151C42.3999 19.8263 42.791 19.4505 43.1451 19.0822C43.299 18.8946 43.51 18.8205 43.697 19.003L43.3481 17.3758Z" fill="#0053A0"/>
<path fill-rule="evenodd" clip-rule="evenodd" d="M41.218 26.0722C41.0475 26.0768 40.8542 26.1378 40.6478 26.2746C40.3542 26.5329 40.2459 26.9371 40.1489 27.2986C40.0167 27.9092 39.6883 29.1641 39.568 29.7764C39.7709 29.6134 39.946 29.5951 40.1752 29.6453C41.0714 29.8386 41.9643 30.0416 42.8571 30.2348C43.0732 30.2765 43.2329 30.4458 43.3554 30.6356C43.4871 29.7861 44.0151 28.0592 44.0008 27.1925C43.9837 26.4821 43.3252 26.0289 42.6952 26.1765C42.3377 26.2769 42.137 26.6897 42.0578 26.9793C42.0566 26.5483 41.7294 26.0585 41.218 26.0722ZM41.2214 27.1025C41.4842 27.1042 41.7271 27.3465 41.657 27.6509C41.5874 27.9679 41.4614 28.635 41.3839 28.9486C41.0788 28.887 40.7618 28.8186 40.4608 28.749C40.5475 28.4218 40.629 27.9571 40.7151 27.6247C40.8018 27.2478 41.0178 27.1025 41.2214 27.1025ZM42.8645 27.1589C43.1382 27.1686 43.3891 27.4434 43.3286 27.7781C43.2437 28.1806 43.0886 28.9229 43.0145 29.3192C42.6821 29.2519 42.3377 29.1715 42.0019 29.1054C42.0869 28.7023 42.2174 28.1213 42.3246 27.7182C42.4238 27.3054 42.6507 27.1521 42.8645 27.1589ZM39.5047 29.9526C39.2527 30.4053 39.0223 30.8369 38.7583 31.2953C38.9585 31.1995 39.1563 31.1887 39.3211 31.2765C39.9066 31.5861 40.4055 31.8763 40.9853 32.199C41.2094 32.3284 41.4523 32.5696 41.4774 32.8889C41.4677 33.3165 41.1723 33.8336 40.7789 34.0075C40.4944 34.1409 40.1706 34.0041 39.9545 33.8792C39.4231 33.5599 39.0041 33.333 38.4727 33.0092C38.2891 32.9037 38.1255 32.8256 38.109 32.4846C37.8547 32.9157 37.6255 33.3872 37.3586 33.8313C37.7127 33.6728 37.9567 33.7783 38.211 33.9357C38.6837 34.2076 39.0771 34.4357 39.5451 34.7082C39.9026 34.9112 40.2607 35.0452 40.7487 34.9363C41.1701 34.8388 41.5275 34.4311 41.7847 34.0109C42.0566 33.5708 42.2955 33.0582 42.2682 32.5713C42.2442 32.0684 41.9381 31.7252 41.5971 31.4983C41.0406 31.1613 40.5988 30.9293 40.0372 30.602C39.8211 30.472 39.5115 30.2765 39.5047 29.9526ZM39.8114 35.1352C39.7994 35.5589 39.5623 36.0572 39.2606 36.4027C39.1084 36.6068 38.6187 37.1621 38.4208 37.3748C37.7503 36.8058 37.1403 36.2898 36.4675 35.7248C36.2896 35.5782 36.1494 35.3741 36.1408 35.1427C35.8626 35.4294 35.4869 35.8553 35.2291 36.1626C35.4595 36.1301 35.6756 36.2419 35.8483 36.3884C36.508 36.9512 37.1477 37.5281 37.817 38.0823C38.0177 38.2648 38.1209 38.4415 38.1318 38.7317C38.739 38.0464 39.8656 36.7516 40.4574 36.0549C40.377 36.0201 40.2698 36.0076 40.2242 35.9118C40.0492 35.5925 39.9967 35.3884 39.8114 35.1352ZM35.1653 36.2419C34.9771 36.4888 34.6003 36.6319 34.3289 36.7516C33.7422 37.0315 32.9189 37.7009 32.7473 38.4848C32.6105 39.1605 32.7593 39.7061 33.1327 40.1981C33.5022 40.6976 33.968 40.9878 34.6111 41.0043C35.3306 40.9975 36.0975 40.5351 36.6653 39.9581C36.8524 39.7711 37.0816 39.514 37.3552 39.4929C37.1272 39.2215 36.9367 38.9153 36.6881 38.6565C36.5274 39.1519 35.7531 39.9655 35.2291 40.1081C34.7668 40.2124 34.4572 40.0875 34.1191 39.7962C33.7433 39.4073 33.5096 38.9284 33.6652 38.368C33.8967 37.6456 34.8557 37.1165 35.4583 37.2208C35.3489 36.8981 35.2662 36.5526 35.1653 36.2419Z" fill="#0053A0"/>
<path fill-rule="evenodd" clip-rule="evenodd" d="M24.1073 9.78599C24.0309 10.0061 23.979 10.2963 23.9277 10.5511C23.9169 10.607 23.889 10.6452 23.8553 10.6857C22.1489 12.403 20.0405 11.9029 19.2548 14.4213C19.1659 14.6339 19.2788 14.8591 19.659 15.0695C19.6972 15.0923 19.7309 15.0826 19.7309 15.0427C19.6351 12.3083 23.3296 12.493 24.1375 10.5956C24.1461 10.5762 24.1735 10.5813 24.182 10.5956C24.861 11.8625 25.9831 12.0284 27.0088 12.6213C27.7768 13.0643 28.3304 13.4663 28.4872 14.7246C28.4923 14.7839 28.5088 14.7731 28.5391 14.7428C28.6554 14.6146 28.9376 14.5484 28.929 14.3563C28.6805 12.4999 26.6359 12.0991 24.9956 11.3345C24.9272 11.2821 24.8576 11.2296 24.7892 11.1771C24.446 10.7712 24.1843 10.3134 24.1073 9.78599ZM24.0777 12.1076C24.0594 12.1088 24.044 12.1128 24.0281 12.1219C24.0104 12.1304 23.9933 12.1487 23.9836 12.1675C23.9745 12.1846 23.9779 12.2388 23.9836 12.2758C23.9899 12.2998 24.0115 12.3129 24.0246 12.3283C24.052 12.3619 24.076 12.3813 24.1113 12.4075C24.1552 12.4366 24.2094 12.4007 24.2191 12.3659C24.2322 12.3055 24.2322 12.2388 24.2191 12.1857C24.2156 12.1664 24.2008 12.1544 24.1888 12.1367C24.1723 12.1185 24.1541 12.1088 24.1256 12.1076C24.1136 12.1065 24.0942 12.1053 24.0777 12.1076ZM24.6353 12.6247C24.6296 12.6259 24.6273 12.627 24.621 12.6322C24.6102 12.6407 24.6016 12.655 24.6016 12.6692C24.6005 12.7439 24.5669 12.8528 24.6353 12.8916C24.6689 12.907 24.7111 12.9127 24.7373 12.883C24.7504 12.8614 24.7761 12.8539 24.7744 12.8157C24.7744 12.7975 24.7493 12.7918 24.7413 12.7713C24.7305 12.7411 24.7362 12.6875 24.7254 12.6658C24.7157 12.6498 24.706 12.6344 24.6883 12.6322C24.67 12.6287 24.6535 12.6202 24.6353 12.6247ZM23.6084 12.6356C23.5588 12.6527 23.5064 12.6886 23.4881 12.7519C23.4665 12.7895 23.4676 12.8192 23.4881 12.842C23.5144 12.8807 23.5469 12.9264 23.5925 12.9475C23.6312 12.9657 23.6814 12.9657 23.6985 12.883C23.7173 12.8146 23.7185 12.7183 23.6877 12.692C23.6478 12.6635 23.6575 12.6236 23.6084 12.6356ZM24.1518 13.5393C23.9334 14.1966 23.877 14.5279 23.7213 15.0513C24.0064 15.0536 24.1638 15.0547 24.369 15.0587C24.202 14.4623 24.194 14.2257 24.1518 13.5393Z" fill="#0053A0"/>
<path fill-rule="evenodd" clip-rule="evenodd" d="M14.0721 16.7874C14.0625 16.7874 14.0505 16.7925 14.0385 16.8022C12.5179 17.8746 12.1051 19.7755 10.1497 19.4614C11.5377 20.1102 11.5042 21.7055 11.6458 23.185C11.7653 24.4313 12.7183 26.1104 15.2877 25.7609C15.3162 25.7586 15.3356 25.7358 15.3173 25.7084C15.1531 25.4741 14.6024 25.5511 14.4655 25.5283C12.4316 25.1469 12.0871 23.2762 11.6646 21.1593C11.5664 20.5475 11.1694 20.1609 10.9258 19.7014C10.9082 19.6546 10.8923 19.6398 10.9521 19.629C12.248 19.381 13.2249 18.2566 14.2637 17.061C14.2854 17.0479 14.2894 17.0183 14.2637 16.9966C14.205 16.9379 14.1514 16.8729 14.0984 16.8022C14.0887 16.7925 14.083 16.7862 14.0721 16.7874ZM13.8777 19.2476C13.8595 19.2487 13.8401 19.2527 13.8247 19.2618C13.8065 19.2704 13.7899 19.2886 13.7791 19.3074C13.7705 19.3245 13.7745 19.3787 13.7791 19.4157C13.7865 19.4397 13.8116 19.4528 13.8247 19.4682C13.8521 19.5018 13.8766 19.5212 13.9114 19.5474C13.9553 19.5765 14.006 19.5406 14.0157 19.5058C14.0288 19.4454 14.0288 19.3787 14.0157 19.3257C14.0117 19.3063 13.9975 19.2943 13.9855 19.2766C13.969 19.2584 13.9507 19.2487 13.9222 19.2476C13.9097 19.2464 13.8943 19.2453 13.8777 19.2476ZM14.4621 19.7789C14.4559 19.7806 14.4502 19.7829 14.4439 19.7875C14.4331 19.7949 14.4245 19.8091 14.4245 19.8245C14.4211 19.8981 14.3829 20.0058 14.4513 20.0458C14.4838 20.0634 14.5254 20.0674 14.5516 20.0383C14.5665 20.0167 14.5927 20.0121 14.5927 19.9751C14.5938 19.9557 14.571 19.9505 14.5642 19.9294C14.5545 19.8992 14.5591 19.8451 14.5482 19.8245C14.5397 19.808 14.5294 19.7898 14.5112 19.7875C14.4929 19.7829 14.4798 19.7755 14.4621 19.7789ZM13.4273 19.8582C13.3783 19.8753 13.3253 19.9146 13.3076 19.9785C13.2859 20.0155 13.2871 20.0418 13.3076 20.0646C13.3327 20.1033 13.3697 20.149 13.4153 20.1695C13.4541 20.1883 13.5043 20.1923 13.5214 20.109C13.5402 20.0406 13.5379 19.9414 13.5054 19.9146C13.4661 19.8861 13.4769 19.8462 13.4273 19.8582ZM14.0277 20.751C13.9473 21.4147 13.705 22.173 13.4684 22.6713C13.7443 22.6342 13.965 22.8018 13.9821 23.0156C14.0516 22.7733 14.2375 22.5869 14.4581 22.6519C14.3133 22.0498 14.1343 21.4027 14.0277 20.751Z" fill="#0053A0"/>
<path fill-rule="evenodd" clip-rule="evenodd" d="M16.1982 27.2154C16.1874 27.2182 16.1754 27.2216 16.1612 27.2273C13.8065 28.1373 13.3361 30.2514 14.6526 32.1129C15.6418 33.7749 16.0796 34.4596 15.6093 35.7955C17.4497 33.6044 20.7104 37.149 22.581 34.4157C22.6061 34.3821 22.5668 34.3593 22.528 34.3217C22.4368 34.2584 22.341 34.2162 22.2475 34.1791C22.1779 34.1529 22.1397 34.1683 22.0975 34.2282C21.3318 35.0349 18.8488 34.8559 16.9714 34.8616C16.9138 34.8616 16.7422 34.8918 16.6857 34.922C16.5055 35.0144 16.3231 35.0959 16.131 35.0788C16.0796 35.0788 16.0015 35.0514 16.0146 34.9448C16.1082 33.5793 15.2957 32.7116 14.7809 31.585C14.6201 31.2007 13.4273 29.0455 16.2957 27.7365C16.3088 27.7114 16.3362 27.6966 16.3328 27.6584C16.3242 27.5249 16.2969 27.3932 16.2581 27.2564C16.2513 27.2228 16.2319 27.2108 16.1982 27.2154ZM18.3283 29.8181C18.3101 29.8209 18.2912 29.8243 18.2753 29.8329C18.2576 29.8426 18.2405 29.8603 18.2314 29.8785C18.2228 29.8962 18.2251 29.9503 18.2314 29.9874C18.2371 30.0114 18.2622 30.0233 18.2753 30.0393C18.3044 30.0729 18.3272 30.0917 18.3619 30.1185C18.4064 30.147 18.4617 30.1111 18.4708 30.0763C18.4828 30.0165 18.4845 29.9492 18.4708 29.8962C18.4663 29.8774 18.448 29.8665 18.4378 29.8483C18.4195 29.8289 18.4053 29.8209 18.3773 29.8181C18.3642 29.8169 18.3465 29.8158 18.3283 29.8181ZM18.9213 30.3209C18.915 30.3221 18.9081 30.3232 18.9019 30.3284C18.8922 30.3369 18.8825 30.3512 18.8836 30.3654C18.8802 30.4401 18.842 30.5467 18.9093 30.5878C18.9429 30.6043 18.98 30.6077 19.0073 30.5792C19.0205 30.5576 19.0518 30.5541 19.0518 30.5154C19.053 30.4977 19.0267 30.4926 19.0182 30.4709C19.0085 30.4412 19.017 30.3871 19.0073 30.3654C18.9977 30.3489 18.9885 30.3306 18.9691 30.3284C18.952 30.3232 18.9389 30.3175 18.9213 30.3209ZM17.8636 30.3848C17.8146 30.4013 17.7621 30.4412 17.7439 30.5045C17.7211 30.5404 17.7234 30.5684 17.7439 30.5912C17.769 30.6294 17.8026 30.6739 17.8482 30.6955C17.8864 30.7149 17.9372 30.7183 17.9526 30.6357C17.972 30.5672 17.9742 30.4675 17.9417 30.4412C17.9024 30.4122 17.9132 30.3728 17.8636 30.3848ZM18.4041 31.2389C18.3237 31.9025 18.0809 32.6608 17.8448 33.1591C18.1208 33.1221 18.3414 33.2863 18.3585 33.5012C18.4281 33.2589 18.6139 33.0753 18.8346 33.1409C18.6892 32.5388 18.5096 31.8917 18.4041 31.2389Z" fill="#0053A0"/>
<path fill-rule="evenodd" clip-rule="evenodd" d="M31.7792 27.2119C31.7672 27.2131 31.7535 27.225 31.749 27.2381C31.6971 27.3487 31.6446 27.4542 31.5916 27.5648C31.5448 27.6897 31.5426 27.7963 31.7307 27.8562C35.1043 29.2354 33.4434 31.8449 32.5637 33.3763C32.4725 33.5337 32.2541 33.9978 32.2376 34.2019C32.2039 34.4191 32.2376 34.6084 32.2324 34.8353C32.2324 34.8884 32.1583 34.9026 32.1173 34.8952C29.9576 34.4801 28.0892 36.3884 26.3189 34.329C26.1558 34.1529 25.9603 34.1358 25.8884 34.1911C25.8103 34.2498 25.7527 34.3148 25.6974 34.4009C25.6604 34.4528 25.6615 34.4824 25.7048 34.5354C27.5453 37.1165 30.266 34.0685 32.6008 35.3525C32.054 34.04 33.1316 32.7668 33.741 31.622C35.0957 29.3203 33.5107 27.9058 31.7911 27.2119C31.786 27.2096 31.7837 27.2119 31.7792 27.2119ZM29.9912 29.769C29.9729 29.7713 29.9576 29.7753 29.9416 29.7844C29.9239 29.793 29.9068 29.8112 29.8971 29.8289C29.8891 29.8471 29.8914 29.9047 29.8971 29.9418C29.9034 29.9657 29.9251 29.9754 29.9382 29.9908C29.9655 30.0233 29.9895 30.0438 30.0243 30.0689C30.0687 30.0991 30.1229 30.0632 30.1326 30.0284C30.1457 29.9686 30.1457 29.9002 30.1326 29.8483C30.1292 29.8277 30.1143 29.8169 30.1035 29.7992C30.0858 29.781 30.0676 29.7713 30.0391 29.769C30.0271 29.7679 30.0077 29.7667 29.9912 29.769ZM30.5573 30.2873C30.5511 30.2873 30.5442 30.2901 30.538 30.2947C30.5271 30.3021 30.5191 30.3175 30.5191 30.3318C30.5163 30.4053 30.4781 30.5131 30.5454 30.5524C30.579 30.5706 30.6195 30.5741 30.6474 30.5456C30.6605 30.5239 30.6879 30.5205 30.6879 30.4817C30.6879 30.464 30.6668 30.4578 30.6583 30.4361C30.6486 30.4064 30.6531 30.3534 30.644 30.3318C30.6343 30.3152 30.628 30.297 30.6087 30.2947C30.5921 30.2901 30.5739 30.2839 30.5573 30.2873ZM29.5111 30.3654C29.4615 30.3825 29.4125 30.423 29.3948 30.4857C29.3732 30.5228 29.3743 30.549 29.3948 30.5718C29.421 30.6106 29.4535 30.6556 29.4992 30.6761C29.5374 30.6955 29.5875 30.6989 29.6046 30.6163C29.624 30.5478 29.6212 30.4481 29.5887 30.4218C29.5505 30.3933 29.5602 30.3534 29.5111 30.3654ZM30.0847 31.2212C30.0054 31.8848 29.762 32.6431 29.5254 33.1409C29.8025 33.1038 30.0231 33.272 30.0391 33.4852C30.1086 33.2429 30.2945 33.0571 30.5152 33.122C30.3703 32.5194 30.1913 31.8729 30.0847 31.2212Z" fill="#0053A0"/>
<path fill-rule="evenodd" clip-rule="evenodd" d="M33.8272 16.7526C33.8203 16.7554 33.8141 16.7611 33.8084 16.7686C33.7827 16.7982 33.7616 16.963 33.7553 17.0719C33.7542 17.0947 33.7542 17.1129 33.7782 17.1283C34.2616 17.4225 35.7104 19.0651 36.9727 19.3519C37.028 19.3639 37.0348 19.4106 37.0075 19.4386C35.5063 21.2026 37.2965 23.9575 34.3375 25.0077C33.7878 25.1588 33.2348 25.087 33.1327 25.453C33.1299 25.4661 33.1481 25.4827 33.159 25.4827C34.9384 25.5956 36.0485 24.9958 36.3809 23.7249C36.809 22.3087 36.0029 20.2966 37.5212 19.1985C37.5594 19.1694 37.5388 19.1193 37.5052 19.1227C35.9704 19.2789 34.9891 17.6506 33.8488 16.7566C33.8431 16.7526 33.8335 16.7515 33.8272 16.7526ZM34.3147 19.1227C34.2964 19.1267 34.2776 19.1324 34.2616 19.1421C34.244 19.1506 34.2269 19.1683 34.2172 19.1877C34.2092 19.2042 34.2115 19.2584 34.2172 19.2954C34.2234 19.3194 34.2451 19.3331 34.2582 19.3485C34.2856 19.3821 34.3095 19.3975 34.3443 19.4226C34.3888 19.4528 34.4429 19.4203 34.4526 19.3855C34.4657 19.3257 34.4657 19.2584 34.4526 19.2054C34.4492 19.1865 34.4344 19.1706 34.4236 19.1529C34.4059 19.1347 34.3876 19.125 34.3591 19.1227C34.3472 19.1227 34.3312 19.1204 34.3147 19.1227ZM34.8352 19.7014C34.8295 19.7025 34.8232 19.7037 34.8175 19.7082C34.8067 19.7168 34.8016 19.731 34.8016 19.7459C34.7981 19.82 34.7611 19.9266 34.8284 19.9676C34.8603 19.9842 34.8991 19.9882 34.9253 19.9591C34.9395 19.9374 34.9675 19.934 34.9675 19.8958C34.9675 19.8776 34.9447 19.873 34.9373 19.8513C34.9276 19.8211 34.9327 19.767 34.9219 19.7459C34.9133 19.7288 34.9059 19.7111 34.8882 19.7082C34.87 19.7037 34.8534 19.6974 34.8352 19.7014ZM33.7639 19.7082C33.7143 19.7253 33.6653 19.7647 33.6476 19.8285C33.6259 19.8656 33.6271 19.8918 33.6476 19.9146C33.6727 19.9534 33.7063 19.999 33.7519 20.019C33.7901 20.0383 33.8403 20.0418 33.8574 19.9591C33.8751 19.8907 33.8739 19.7949 33.842 19.7687C33.8021 19.7396 33.8129 19.6963 33.7639 19.7082ZM34.3409 20.5555C34.2616 21.2191 34.0182 21.9774 33.7816 22.4757C34.0575 22.4387 34.2799 22.6063 34.2953 22.8212C34.3648 22.5789 34.5507 22.3913 34.7719 22.4563C34.6265 21.8554 34.4475 21.2071 34.3409 20.5555Z" fill="#0053A0"/>
<path fill-rule="evenodd" clip-rule="evenodd" d="M32.8072 12.643C32.8015 12.6441 32.7952 12.6441 32.7884 12.6475C31.4252 13.033 29.5842 14.606 28.0676 15.9846C28.0231 16.0353 27.9621 16.0462 27.9125 16.0291C26.9045 15.6978 25.7323 15.6551 24.7556 15.6283C23.3622 15.5 21.6871 15.6705 20.1882 16.1562C20.1237 16.179 20.0753 16.1203 20.0274 16.0627C18.8409 14.7428 17.1692 13.6618 15.3653 12.9092C15.3151 12.8853 15.2729 12.8636 15.2153 12.9167C14.2894 13.7707 14.493 16.3005 15.2878 17.6722C15.3813 17.8712 15.4018 18.2201 15.4041 18.3393C15.4605 19.0771 15.6042 19.7145 15.7975 20.4021C15.8454 20.8291 16.009 21.2636 16.2547 21.6319C16.3026 21.6906 16.2821 21.7436 16.2473 21.7818C15.9332 22.0966 15.6464 22.3942 15.3322 22.7083C15.3094 22.73 15.2661 22.7454 15.2239 22.7528C14.9633 22.783 14.8818 22.868 14.7587 23.169C14.7404 23.2123 14.7427 23.2426 14.7655 23.2785C14.81 23.3612 15.1121 23.8845 15.3619 24.1628C15.603 24.4017 15.513 24.6286 15.3094 24.8458C15.6943 25.1337 16.383 25.6845 16.4241 25.7683C16.4674 25.9901 16.8585 26.0648 16.6253 26.3829C16.6869 26.3972 16.724 26.42 16.7718 26.4582C16.8066 26.4958 16.814 26.5317 16.8175 26.5711C16.8488 26.9166 16.9138 27.2302 17.1054 27.5608C17.8853 28.8836 18.7594 28.6795 19.7982 29.8072C20.4196 30.4828 21.0331 30.5096 21.4556 31.7012C21.4168 32.1534 21.3929 32.4305 21.5793 32.8216C21.8 33.2994 22.3433 33.3176 23.0417 33.6352C23.1352 33.6717 23.1871 33.7002 23.2555 33.7709C23.438 33.9488 23.6478 34.0628 23.8856 34.1757C24.0777 34.2572 24.3052 34.2572 24.4819 34.1683C24.8177 33.9761 24.8884 34.1152 25.5093 33.6688C26.0949 33.4961 27.051 32.7748 26.9489 31.5473C26.9524 31.5114 26.9609 31.4874 26.9718 31.4561C26.99 31.3996 27.0425 31.3432 27.0921 31.2885C27.3281 31.0062 27.5983 30.7565 27.7637 30.4144C27.7973 30.3318 27.8264 30.2514 27.9017 30.1892C30.2393 28.2809 29.4126 29.1196 30.2575 28.4719C31.9902 27.1543 30.8527 25.6161 32.8819 24.7557C32.6071 24.1736 32.7006 24.1206 33.5946 22.8811C33.1219 22.6314 32.7929 22.3446 32.4651 22.1154C31.4371 21.3092 32.3705 20.625 32.4548 20.2293C32.5136 20.0047 32.6019 19.7213 32.6236 19.4346C32.7331 18.7738 32.6715 17.9949 33.009 17.6494C33.2576 17.4094 33.3295 16.0952 33.3688 15.9886C33.6413 15.1305 33.5415 15.0154 33.5911 14.4766C33.5991 14.4047 33.6248 14.3471 33.5911 14.2679C33.4013 13.7445 33.1687 13.2382 32.9007 12.7365C32.8768 12.6932 32.8591 12.6515 32.8254 12.643C32.8203 12.6418 32.8135 12.643 32.8072 12.643ZM31.9976 14.6613C31.8881 15.7377 31.4959 16.4504 31.6184 17.353C31.1612 17.9145 31.3146 18.9619 30.8944 19.5885C30.867 19.6244 30.8299 19.6449 30.7855 19.641C30.2273 19.5486 29.8362 18.8456 29.3612 18.4482C29.3128 18.41 29.2888 18.3741 29.3048 18.3359C29.4981 17.906 29.9416 17.475 29.5973 17.0382C29.6144 15.7868 31.1093 15.5855 31.9976 14.6613ZM15.9212 14.8677C16.7981 15.3586 17.3574 16.183 17.7884 16.195C17.8557 16.2993 17.9515 16.4071 18.0319 16.4915C18.6773 17.2258 18.1653 17.4995 18.7326 18.4414C18.7942 18.5731 18.8215 18.7014 18.7326 18.7817C18.3534 19.1119 18.0165 19.4465 17.7018 19.8091C17.2855 20.3143 17.0826 20.1284 16.9594 19.8091C16.8825 19.5725 16.8009 19.3051 16.9075 19.0326C16.9737 18.8827 16.9338 18.7595 16.8209 18.6164C16.6698 18.4043 16.5466 18.1797 16.4275 17.9562C16.3853 17.8724 16.3579 17.8005 16.3414 17.695C16.1914 16.7663 16.2188 15.3774 15.9212 14.8677ZM26.8144 24.0619C26.8783 24.055 26.9347 24.0989 26.9421 24.1628C26.9489 24.2278 26.9011 24.2876 26.8372 24.2945C26.7728 24.3008 26.7163 24.254 26.7089 24.189C26.7032 24.1257 26.7511 24.0693 26.8144 24.0619ZM20.8256 24.0727C20.8906 24.067 20.9465 24.1098 20.9527 24.1748C20.9601 24.2386 20.9117 24.2945 20.8484 24.3019C20.7845 24.3093 20.7269 24.2648 20.7212 24.201C20.7138 24.1366 20.7617 24.0801 20.8256 24.0727ZM30.4747 26.6794C30.5694 26.6805 30.5985 26.7689 30.5876 26.859C30.4867 28.131 29.8938 27.7809 28.5391 28.9856C28.185 29.2684 28.3013 29.5432 27.8236 29.9458C27.4233 30.3198 27.0499 30.7109 26.7089 31.195C26.6536 31.2776 26.6131 31.1898 26.608 31.1528C26.5915 31.0519 26.5316 30.9378 26.4472 30.8455C26.2232 30.5935 26.5806 30.6248 26.1775 30.021C26.0105 29.7764 25.8172 30.0917 25.7009 29.6949C25.6291 29.4389 25.6975 29.5649 25.6074 28.9708L25.844 28.7753C25.9552 29.0923 26.1114 29.3574 26.2819 29.578C26.307 29.6082 26.2602 29.8756 26.3645 30.1111C26.3862 29.7394 26.7186 29.5256 26.2448 28.8585C26.1832 28.7718 26.1513 28.6869 26.1285 28.5848C26.1257 28.574 26.1234 28.5654 26.1211 28.5546C27.0185 27.9714 28.0231 27.4953 28.9713 27.1024C28.9228 27.1566 28.876 27.2108 28.8282 27.2684C28.8065 27.2946 28.8487 27.3043 28.8618 27.2986C28.9194 27.2826 28.9467 27.29 28.9924 27.2986C29.0226 27.3163 29.0191 27.3476 29.0191 27.3761C29.026 27.4867 28.9376 27.493 28.9638 27.6162C29.1201 27.416 29.2689 27.2216 29.4279 27.0392C29.4656 26.9924 29.5146 26.9371 29.5887 26.9457L29.762 26.9685C29.8208 26.9707 29.8772 26.9599 29.9416 26.9417C30.0944 26.8818 30.2085 26.8077 30.3544 26.709C30.4023 26.6862 30.4422 26.6794 30.4747 26.6794ZM17.732 26.8818C17.7377 26.8818 17.7474 26.8858 17.7548 26.8892C18.2046 27.115 18.8181 27.2564 19.1311 27.3881C19.2953 27.4651 19.4721 27.5791 19.5992 27.5985C19.6517 27.6019 19.6517 27.5734 19.6254 27.542C19.5918 27.489 19.5581 27.4388 19.5245 27.3921C20.2976 27.7507 21.0137 28.1669 21.7709 28.6675C21.7686 28.6738 21.7652 28.6795 21.764 28.6857C21.7424 28.7502 21.7207 28.8089 21.699 28.8619C21.6871 28.8921 21.674 28.9258 21.662 28.952C21.6523 28.9748 21.6415 28.9988 21.6318 29.0193C21.6141 29.0575 21.5958 29.0997 21.5793 29.1322C21.5576 29.1738 21.5337 29.2228 21.5155 29.2593C21.5098 29.2736 21.5035 29.2867 21.4972 29.3009C21.4852 29.3277 21.4721 29.354 21.4641 29.379C21.4579 29.3973 21.4533 29.4138 21.4482 29.4321C21.4459 29.44 21.4425 29.4486 21.4413 29.4583C21.4362 29.4822 21.4351 29.5062 21.4328 29.5324C21.4316 29.5569 21.4316 29.582 21.4328 29.6082C21.4351 29.6362 21.4362 29.6635 21.4413 29.6949C21.4505 29.7702 21.4721 29.7992 21.4972 29.8112C21.5046 29.8146 21.5155 29.8158 21.524 29.8181C21.5417 29.822 21.5765 29.8277 21.5873 29.7992C21.5958 29.7724 21.609 29.7462 21.6209 29.7211C21.6329 29.6949 21.6437 29.671 21.6586 29.6453C21.6859 29.5951 21.7184 29.545 21.7521 29.4954C21.7589 29.4845 21.7663 29.4725 21.7749 29.4617C21.8359 29.3756 21.9032 29.293 21.9653 29.2074C21.9716 29.1989 21.975 29.192 21.9813 29.1846C22.0064 29.1476 22.0292 29.1094 22.052 29.0717C22.0605 29.0586 22.0696 29.0444 22.0782 29.0313C22.0999 28.9936 22.1215 28.9566 22.1381 28.9184L22.6221 29.2781C22.5417 29.4748 22.4385 29.7417 22.4083 29.9309C22.3519 30.3568 22.0902 30.2611 21.8946 30.0991C21.9066 30.5381 21.9402 30.7269 21.6956 31.1117C21.6631 31.167 21.6329 31.1476 21.613 31.1117C21.0211 29.9709 20.4499 30.2428 19.7013 29.0273C19.634 28.8511 19.5068 28.6829 19.2617 28.5917C18.3392 28.2285 17.6801 27.9788 17.7018 26.9189C17.7029 26.9 17.7126 26.8818 17.732 26.8818ZM25.8691 30.6921C25.9073 30.6944 25.9409 30.7269 25.9552 30.7673C26.1416 31.1875 26.3731 31.9265 26.2973 32.1653C26.0236 33.2144 25.2847 33.3883 24.5982 33.2982C24.0834 33.2309 24.0811 33.1101 24.0726 32.7657C24.0737 32.7281 24.1256 32.7138 24.1672 32.7019C24.7892 32.5063 25.1633 32.1676 25.1792 31.5211C25.1826 31.4333 25.1935 31.3409 25.149 31.2617C25.3229 31.1505 25.4837 31.0353 25.641 30.8911C25.6456 30.8865 25.6519 30.8814 25.6553 30.8757C25.7032 30.7998 25.7573 30.7388 25.832 30.6989C25.8451 30.6944 25.8571 30.6909 25.8691 30.6921ZM22.4117 30.7713C22.4323 30.7651 22.4505 30.7759 22.4722 30.801C22.4876 30.8181 22.5092 30.8717 22.5583 30.8717C22.6421 30.9777 22.7589 31.069 22.869 31.1493C22.8353 31.1824 22.8148 31.2212 22.8017 31.2617C22.7669 31.3614 22.7732 31.5308 22.8017 31.6853C22.8137 31.7765 22.845 31.8569 22.8918 31.9361C23.1164 32.2856 23.2761 32.4424 23.5292 32.6152C23.6347 32.679 23.751 32.7343 23.8856 32.7212C23.9226 32.7161 23.9443 32.7412 23.938 32.7726C23.8975 33.2874 23.6632 33.3222 23.072 33.2492C21.7618 32.9875 21.646 32.134 22.3553 30.8455C22.3712 30.7998 22.3929 30.777 22.4117 30.7713ZM24.1113 33.5565C24.2921 33.5525 24.4842 33.5588 24.6729 33.5827C24.7014 33.5884 24.7037 33.6124 24.6957 33.6318C24.6689 33.7025 24.5897 33.7925 24.5492 33.8273C24.5241 33.8467 24.4853 33.8541 24.4517 33.8644C24.3103 33.902 24.0897 33.9185 24.0509 33.9128C24.0161 33.9054 23.9813 33.8923 23.9488 33.8718C23.8257 33.8022 23.7105 33.7218 23.5891 33.6477C23.5629 33.6272 23.5617 33.5958 23.5925 33.5913C23.7561 33.5753 23.9289 33.5611 24.1113 33.5565Z" fill="#0053A0"/>
<path fill-rule="evenodd" clip-rule="evenodd" d="M32.6612 13.5957C32.6538 13.5957 32.6464 13.5968 32.6384 13.5991C31.1492 14.1408 29.3019 15.2183 28.3412 16.6483C27.9535 16.9607 27.5562 17.2652 27.1445 17.5326C28.0003 16.3951 26.2927 16.3199 24.2345 16.0964C22.8199 15.9755 21.1317 16.4179 20.5821 16.7195C20.5325 16.748 20.5017 16.8045 20.5411 16.8547C20.6944 17.073 20.7418 17.3302 20.8324 17.5713C20.845 17.5976 20.8193 17.5998 20.7994 17.5822C19.0085 15.9789 16.3328 13.8163 15.4411 13.6031C15.3989 13.5957 15.3607 13.61 15.3391 13.6487C15.2758 13.7816 15.261 13.8203 15.2119 13.952C15.1771 14.0683 15.1133 14.1408 15.0814 14.1727C14.5711 14.6733 15.4651 15.6117 15.5985 17.3279C15.6874 18.0525 15.8625 18.3775 16.0289 18.8758C16.0546 18.9431 16.0711 19.0007 16.082 19.0674C16.3134 19.8667 16.4645 20.6815 16.7718 21.4221C17.1379 22.6114 15.7028 22.4159 15.6441 23.4022C15.6105 24.0716 16.3961 24.4387 16.2621 24.9285C16.2536 24.9593 16.196 24.9929 16.2285 25.0328C16.8334 25.6606 17.0672 25.514 17.3118 26.0346C17.8796 27.0295 18.4965 25.9411 19.5245 27.3921C20.2976 27.7507 21.0137 28.1669 21.7709 28.6675C21.825 28.4982 21.8752 28.2884 21.9208 28.0147C22.0109 27.4736 21.9932 26.9274 21.6511 26.1725C21.5884 26.0625 21.6261 25.8761 21.7372 25.7877C21.7937 25.7455 21.8176 25.729 21.8239 25.8162C21.9197 26.8197 22.7418 27.4964 22.2355 28.4457C22.2173 28.4805 22.1956 28.509 22.2019 28.5654C22.2127 28.6937 22.1865 28.8089 22.1381 28.9184L22.6221 29.2781C22.654 29.2 22.6831 29.1345 22.7014 29.0877C22.9169 27.9725 23.0862 26.1725 23.2481 25.9485C23.263 25.9268 23.2806 25.8932 23.2481 25.8692C23.06 25.6748 22.8485 25.3521 22.9448 25.2546C23.048 25.1765 23.6489 25.4194 23.6455 25.855C23.6204 26.245 23.2401 29.8557 22.7646 30.3654C22.7418 30.3916 22.7504 30.4099 22.7646 30.4293C22.9722 30.7217 22.9277 30.7941 22.8547 30.8312C22.7886 30.8563 22.6506 30.8455 22.5885 30.8683C22.5776 30.8717 22.5668 30.8717 22.5583 30.8717C22.6421 30.9777 22.7589 31.069 22.869 31.1494C22.9351 31.0844 23.0469 31.0365 23.2185 31.0108C23.889 30.8945 24.5287 30.9139 25.0184 31.1454C25.084 31.179 25.125 31.2189 25.149 31.2617C25.3229 31.1505 25.4837 31.0353 25.641 30.8911C25.5954 30.9247 25.4985 30.8922 25.4837 30.8152C25.2151 29.3517 24.9283 29.1259 24.759 28.0221C24.6906 27.6475 24.6581 27.2553 24.7288 26.8961C24.7516 26.7798 24.759 26.6743 24.7288 26.5483C24.6319 26.1874 24.6376 25.8105 24.7185 25.453C24.7733 25.3327 24.9141 25.1719 25.0144 25.0362C25.0977 24.9273 25.1564 24.8002 25.202 24.6622C25.2488 24.5191 25.7129 23.8258 26.1091 23.7164C26.1428 23.7078 26.1473 23.6879 26.1513 23.6565C26.1547 23.6217 26.0897 23.6206 26.0949 23.5675C26.1091 23.2916 27.8441 23.4404 28.7574 23.5254C29.1052 23.4946 29.4525 23.4404 29.7809 23.3794C29.8384 23.3686 29.8424 23.3885 29.8077 23.425C29.5351 23.7249 29.1429 23.8891 28.7877 23.9347C28.7204 23.9444 28.7021 23.9815 28.689 24.0322C28.4861 25.0505 27.0128 25.5425 26.372 25.4228C26.3309 25.4154 26.3298 25.4445 26.3309 25.465C26.3777 25.9867 26.1536 26.0397 25.9592 27.5648C25.9472 27.6498 25.9506 27.7256 25.9637 27.8117C25.9939 28.0592 26.0658 28.2941 26.1211 28.5546C27.0185 27.9714 28.0231 27.4953 28.9713 27.1025C29.1628 26.8858 29.3527 26.6897 29.5517 26.469C29.607 26.396 29.7136 26.3516 29.8145 26.3157C30.5694 25.9987 31.3339 25.5055 31.9075 24.8829C31.924 24.8624 31.9588 24.8287 31.948 24.7894C31.773 23.9706 32.3129 23.7283 32.6527 23.1211C32.704 23.0419 32.6487 23.0213 32.5928 22.9928C32.2194 22.7574 31.8796 22.4324 31.6184 22.1274C31.5569 22.0361 31.5306 21.921 31.509 21.8189C31.2387 20.5475 31.798 20.4546 31.899 19.7191C31.8915 19.353 31.9902 18.9226 32.1053 18.5423C32.241 18.0993 32.302 17.7395 32.4583 17.4921C32.5352 15.2771 33.2228 15.7771 33.0353 14.5963C32.9862 14.3603 32.8614 13.9315 32.7126 13.6367C32.7006 13.6088 32.6823 13.5968 32.6612 13.5957ZM32.2376 14.0279C32.2496 14.025 32.2627 14.0267 32.2747 14.0279C32.3539 14.0336 32.4161 14.0923 32.4246 14.1658C32.4389 14.3095 32.4702 14.4418 32.4987 14.5746C31.9868 15.7987 32.2844 17.479 31.6145 18.5086C31.5808 19.4106 31.4679 19.9859 30.932 20.3457C30.9103 20.3622 30.8864 20.3599 30.8607 20.3457C30.0055 19.9277 29.2409 19.0566 28.4946 18.3729C29.656 17.6169 28.6041 16.8227 29.4319 15.955C30.3955 14.9373 31.2439 14.8363 32.1247 14.0792C32.1618 14.0478 32.2 14.0313 32.2376 14.0279ZM15.5876 14.0912C15.6931 14.0923 15.8146 14.1487 15.9018 14.2331C16.7599 14.6083 16.6829 14.9515 17.3528 15.2879C17.4954 15.362 17.7394 15.4954 17.9275 15.5382C18.0142 15.8387 18.1556 15.8301 18.4709 16.3677C18.5467 16.4994 18.8238 16.7155 18.8489 16.8957C18.8683 17.0086 18.866 17.1067 18.8574 17.215C18.8489 17.5206 18.7229 17.8125 18.8911 17.9493C19.029 18.02 18.9378 18.0896 19.1875 18.2156C19.3136 18.2766 19.3785 18.3393 19.3113 18.471C19.1117 18.8205 18.8671 19.1084 18.6442 19.4277C18.586 19.5018 18.5011 19.5606 18.415 19.6113C17.9309 19.9015 17.529 20.3097 17.0945 20.6946C17.0672 20.7151 17.0541 20.6946 17.0347 20.6877C16.6185 20.4511 16.5079 20.0383 16.4526 19.4756C16.3089 17.9733 16.0073 19.2726 15.501 14.7993C15.4326 14.5974 15.3584 14.2377 15.4217 14.155C15.4651 14.1105 15.5227 14.09 15.5876 14.0912ZM25.3856 17.0046C25.0002 17.719 24.8046 17.6517 24.572 17.9311C24.5549 17.9505 24.5372 17.9744 24.519 17.9984C24.5024 18.0223 24.4842 18.0474 24.4677 18.0765C24.4494 18.105 24.4363 18.1306 24.4289 18.1557C24.4289 18.1569 24.43 18.158 24.4289 18.1591C24.4232 18.1831 24.4192 18.2099 24.4181 18.231C24.4289 18.4642 24.3907 18.5588 24.4517 18.6358C24.4557 18.6415 24.458 18.6478 24.4591 18.6546C24.4625 18.662 24.4625 18.6694 24.4637 18.6763C24.4648 18.6922 24.4614 18.7076 24.4557 18.7185C24.4124 18.6911 24.3451 18.6392 24.2875 18.5879C24.243 18.548 24.206 18.5109 24.1889 18.4784C24.1889 18.4773 24.19 18.4761 24.1889 18.475C24.1843 18.4642 24.182 18.4533 24.182 18.4448C24.182 18.4208 24.1797 18.4054 24.178 18.3918C24.1723 18.3382 24.1569 18.3462 24.1444 18.2874C24.1387 18.2578 24.1313 18.211 24.129 18.1295C24.1279 18.0896 24.129 18.0394 24.129 17.979C24.1244 17.9408 24.1279 17.9214 24.1376 17.9049C24.141 17.8974 24.1461 17.8895 24.1518 17.8821C24.1581 17.8746 24.1638 17.8678 24.1712 17.8592C24.519 17.5018 24.9808 17.2652 25.3856 17.0046ZM22.6113 17.0913C22.9756 17.3387 23.385 17.6694 23.7846 18.0018C23.7932 18.0115 23.7989 18.0212 23.8074 18.032C23.8302 18.0668 23.8474 18.1078 23.8377 18.1591C23.8137 18.3102 23.7413 18.4556 23.6837 18.609C23.6814 18.6164 23.6769 18.6198 23.6717 18.625C23.6672 18.6284 23.6632 18.6335 23.6575 18.6358C23.6455 18.6403 23.6313 18.6392 23.6239 18.6318C23.552 18.5406 23.4739 18.4482 23.4089 18.3547C23.3872 18.3262 23.3644 18.2948 23.3644 18.2566C23.3673 18.2264 23.3684 18.1962 23.3684 18.1711C23.3684 18.1449 23.3673 18.1221 23.3644 18.0993C23.3587 18.0571 23.3456 18.02 23.3274 17.991C23.3262 17.9898 23.3274 17.9875 23.3274 17.9875C23.2892 17.9265 23.223 17.8906 23.1176 17.8627C23.0309 17.8376 22.9556 17.7994 22.8918 17.7549C22.8906 17.7538 22.8895 17.7549 22.8884 17.7549C22.7949 17.6876 22.7276 17.5976 22.682 17.4887C22.682 17.4875 22.6786 17.4858 22.6786 17.4847C22.6329 17.3735 22.6124 17.2435 22.6113 17.0913ZM27.4376 20.6011C27.5356 20.5965 27.6388 20.6085 27.7409 20.6313C27.8418 20.6541 27.9427 20.6889 28.0288 20.7356C28.0556 20.7522 28.0624 20.7847 28.0328 20.7955C27.8885 20.8343 27.742 20.8833 27.5943 20.942C27.5202 20.9705 27.4484 21.003 27.3726 21.0355C27.0008 21.1997 26.6217 21.405 26.2448 21.5948C26.2049 21.6114 26.1787 21.6057 26.1616 21.5829C26.1559 21.5743 26.1513 21.5658 26.1473 21.5527C26.1388 21.5122 26.1405 21.4723 26.1439 21.4329C26.1462 21.3942 26.1536 21.3548 26.1547 21.3126C26.1582 21.255 26.1941 21.2516 26.2146 21.2225C26.2853 21.1952 26.3452 21.1712 26.3948 21.1484C26.5424 21.08 26.6023 21.0321 26.6525 20.9876C26.6872 20.9574 26.7186 20.9301 26.7619 20.8964C26.8064 20.8639 26.8651 20.8269 26.9609 20.7812C27.0185 20.755 27.0761 20.7311 27.1325 20.7054C27.1901 20.6815 27.2466 20.6575 27.3019 20.6381C27.3452 20.6153 27.3954 20.6022 27.4376 20.6011ZM20.1209 20.6792C20.1283 20.6792 20.138 20.6815 20.1437 20.6792C20.1676 20.6877 20.187 20.6974 20.2041 20.7054C20.2207 20.7151 20.2326 20.7248 20.2446 20.7356C20.2891 20.7738 20.3073 20.8172 20.4213 20.8713C20.4487 20.8844 20.4846 20.901 20.5257 20.9158C20.5673 20.9301 20.6169 20.9443 20.6756 20.9614C20.817 21.007 20.9179 21.0333 21.0126 21.0692C21.0149 21.0703 21.0149 21.0726 21.0177 21.0726C21.1112 21.1102 21.2013 21.1558 21.3125 21.2345C21.3513 21.2613 21.3917 21.2927 21.4373 21.3286C21.4818 21.3645 21.5326 21.405 21.5873 21.4517C21.6101 21.47 21.6306 21.482 21.6358 21.5156C21.6369 21.5264 21.6358 21.5373 21.6318 21.5492V21.5527C21.6283 21.5646 21.6232 21.5755 21.6175 21.5874C21.6033 21.6125 21.5839 21.6342 21.5645 21.6513C21.5576 21.6558 21.5514 21.6598 21.5457 21.6621C21.5405 21.6633 21.5308 21.6633 21.5189 21.6621C21.483 21.6547 21.4544 21.6501 21.4254 21.6393C21.3991 21.6296 21.3763 21.6177 21.3547 21.6057C21.3319 21.5937 21.3125 21.5829 21.2948 21.5686C21.2766 21.5538 21.2623 21.5384 21.2458 21.523C21.2121 21.4916 21.1774 21.4591 21.1329 21.4255C21.1124 21.409 21.0896 21.393 21.0616 21.3765C21.0343 21.3605 21.0029 21.344 20.9681 21.3286C20.9322 21.3126 20.9037 21.3092 20.8746 21.3166C20.8649 21.32 20.8541 21.3223 20.845 21.3286C20.8062 21.344 20.7703 21.3257 20.7321 21.3166C20.703 21.3103 20.6705 21.2995 20.6386 21.2875C20.6369 21.2864 20.6357 21.2875 20.6346 21.2875C20.4008 21.1952 20.11 20.9671 20.1089 20.6946C20.1089 20.69 20.1118 20.6855 20.1129 20.6826C20.1152 20.6815 20.1175 20.6792 20.1209 20.6792ZM20.6192 23.2893C20.6813 23.2893 20.7463 23.2927 20.8113 23.2962C20.8769 23.3024 20.9442 23.3081 21.0126 23.319C21.0645 23.3275 21.1146 23.3384 21.1677 23.3492C21.1842 23.3537 21.2013 23.3566 21.219 23.3612C21.2503 23.3686 21.2817 23.3777 21.3125 23.3874C21.3535 23.3982 21.3929 23.4102 21.4328 23.425C21.4915 23.445 21.548 23.4666 21.6055 23.4917C21.6557 23.5134 21.7065 23.5373 21.7555 23.563C21.8045 23.5892 21.8541 23.6194 21.902 23.6491C21.9425 23.6742 21.9824 23.701 22.0217 23.7283C22.04 23.7403 22.0577 23.7489 22.0748 23.762C22.1033 23.7836 22.1324 23.8064 22.1609 23.8292C22.1671 23.8338 22.1728 23.8389 22.1791 23.8446C22.1837 23.8486 22.1899 23.8521 22.1945 23.8555C22.2031 23.8629 22.2127 23.8714 22.2213 23.8783C22.2584 23.9108 22.2954 23.9478 22.3325 23.9826C22.3809 24.0282 22.4265 24.075 22.4722 24.1257C22.4756 24.1291 22.479 24.1326 22.4841 24.1366C22.5246 24.1833 22.5628 24.2323 22.6039 24.2825C22.6267 24.3139 22.6506 24.3452 22.6746 24.3766C22.6939 24.404 22.7116 24.4279 22.731 24.4558C22.7732 24.518 22.8114 24.583 22.8513 24.6514C22.8667 24.6776 22.8787 24.7124 22.8775 24.7409C22.8764 24.7506 22.8741 24.758 22.869 24.7677C22.8319 24.847 22.8091 24.9273 22.7909 25.0186C22.7886 25.0317 22.7766 25.0425 22.7646 25.0448C22.7601 25.0448 22.7527 25.0437 22.7493 25.0414C22.6843 25.0015 22.6244 24.9633 22.5657 24.9211C22.5092 24.8806 22.4562 24.8361 22.4049 24.7928C22.4037 24.7928 22.4009 24.7939 22.4009 24.7928C22.3484 24.7495 22.3005 24.7038 22.2509 24.6582C21.8108 24.2517 21.5012 23.8099 20.9082 23.6913C20.9071 23.6901 20.906 23.6913 20.9048 23.6913C20.6397 23.6382 20.3216 23.6514 19.9076 23.7585C19.7697 23.7728 19.6169 23.7728 19.4612 23.762C19.305 23.7511 19.1465 23.7295 18.9954 23.7021C18.9224 23.689 18.8466 23.673 18.7782 23.6565C18.777 23.6565 18.7759 23.6576 18.7748 23.6565C18.7063 23.6405 18.6425 23.6217 18.5838 23.6046C18.5815 23.6035 18.5803 23.6046 18.5792 23.6046C18.4578 23.5687 18.3597 23.5305 18.2913 23.4957C18.6009 23.5014 18.9412 23.498 19.2354 23.4849C19.5296 23.4718 19.7742 23.4524 19.8917 23.4284C19.9316 23.409 19.9795 23.3925 20.0314 23.3754C20.0793 23.36 20.1346 23.3429 20.1921 23.3309C20.1967 23.3298 20.203 23.3309 20.2075 23.3309C20.2589 23.3201 20.313 23.311 20.3717 23.3047C20.3814 23.3036 20.3888 23.3013 20.3985 23.3013C20.4692 23.2939 20.5422 23.2905 20.6192 23.2893ZM27.1553 23.7922C26.8936 23.8076 26.6069 23.9074 26.2819 24.189C25.7898 24.6725 25.3759 25.274 25.0589 25.843C25.0219 25.9126 25.0099 25.9758 25.0253 26.0494C25.3856 27.7074 25.5401 28.5329 25.6074 28.9708L25.844 28.7753C25.702 28.3762 25.6291 27.8932 25.6781 27.3128C25.8486 26.8687 25.9375 26.3442 26.0156 25.843C26.2745 25.2934 26.3013 25.0602 26.5516 25.075C26.7762 25.087 27.0088 25.0978 27.2192 25.0522C27.3007 25.0362 27.368 25.0037 27.441 24.9581C27.795 24.7449 28.0972 24.4558 28.3555 24.1291C28.3869 24.0955 28.4057 24.0237 28.3891 23.9912C28.3794 23.9661 28.364 23.953 28.3327 23.953C27.9604 23.9758 27.5932 23.7665 27.1553 23.7922ZM27.0356 23.8327C27.1052 23.8315 27.177 23.8469 27.2454 23.8749C27.3834 23.929 27.4843 24.0345 27.5385 24.1594C27.5658 24.2226 27.5812 24.2888 27.5841 24.3583C27.5852 24.4279 27.5733 24.4997 27.5453 24.5682C27.518 24.6366 27.478 24.6953 27.429 24.7449C27.2825 24.8926 27.0533 24.9462 26.848 24.8646C26.8132 24.8504 26.7808 24.8361 26.7511 24.8156C26.7209 24.7962 26.6969 24.7723 26.6719 24.7483C26.5242 24.6018 26.47 24.3766 26.5516 24.1713C26.5624 24.1434 26.5744 24.1195 26.5892 24.0955C26.5915 24.0932 26.5949 24.0909 26.5972 24.0881C26.6034 24.0778 26.608 24.0681 26.6154 24.0584C26.6297 24.0391 26.6456 24.0225 26.661 24.0054L26.6753 23.9912C26.6981 23.9684 26.7209 23.9456 26.7477 23.9273C26.7676 23.9119 26.7916 23.9011 26.8144 23.8891C26.8184 23.888 26.8218 23.888 26.8252 23.8857C26.8326 23.8834 26.8372 23.8771 26.8446 23.8749C26.8737 23.8629 26.9033 23.8543 26.9347 23.8486C26.9672 23.8412 27.002 23.8338 27.0356 23.8327ZM21.0514 23.8412C21.1209 23.8389 21.1876 23.8509 21.2577 23.8783C21.2908 23.8914 21.3245 23.9074 21.3547 23.9273C21.3849 23.9467 21.4088 23.9695 21.4328 23.9946C21.459 24.0202 21.4807 24.0442 21.5012 24.0727C21.5394 24.1303 21.5685 24.1941 21.5839 24.2614C21.6055 24.3606 21.5981 24.469 21.5576 24.5721C21.5428 24.6069 21.5274 24.6354 21.508 24.6657C21.508 24.6668 21.5098 24.6679 21.508 24.6691C21.4305 24.7865 21.3079 24.8658 21.1745 24.8948C21.1072 24.9091 21.0377 24.9102 20.9681 24.8983C20.9333 24.8926 20.8974 24.8817 20.8638 24.8686C20.829 24.8538 20.7954 24.8384 20.7657 24.819C20.707 24.7808 20.6585 24.7301 20.6192 24.6725C20.5228 24.5311 20.4955 24.3464 20.5639 24.1748C20.577 24.1411 20.5964 24.1098 20.6158 24.0813C20.6334 24.0533 20.6505 24.0282 20.6716 24.0054C20.6768 24.0009 20.6825 23.9986 20.6876 23.9946C20.7104 23.9718 20.7321 23.9478 20.7583 23.9313C20.78 23.9153 20.8028 23.9045 20.8256 23.8925C20.8267 23.8925 20.8279 23.8903 20.829 23.8891C20.8507 23.8794 20.8746 23.8749 20.8974 23.8674C20.9191 23.8606 20.9419 23.8521 20.9647 23.8486H20.9721C20.9972 23.8435 21.0246 23.8412 21.0514 23.8412ZM19.3483 24.1029C19.3614 24.1029 19.3757 24.1052 19.3894 24.1075C19.3917 24.1075 19.3951 24.1063 19.3974 24.1075C19.4213 24.1098 19.4453 24.1183 19.4721 24.1291C19.5006 24.1411 19.5308 24.1554 19.5621 24.1748C19.5941 24.1941 19.6277 24.2158 19.6642 24.242L19.6745 24.2494C19.7058 24.2734 19.7372 24.2973 19.7719 24.3247C19.809 24.3538 19.8438 24.3789 19.8848 24.4114C19.9601 24.4701 20.0433 24.5345 20.1317 24.5984C20.1762 24.6309 20.2218 24.6605 20.2708 24.6919C20.3085 24.7158 20.3467 24.7438 20.3877 24.7677C20.4042 24.7774 20.4225 24.7865 20.439 24.7962C20.4858 24.823 20.5354 24.8481 20.5855 24.872C20.6346 24.896 20.6865 24.9177 20.7389 24.9393C20.756 24.9462 20.7714 24.9559 20.7885 24.9621C20.841 24.9821 20.8963 24.998 20.9527 25.0146C21.02 25.034 21.0884 25.0534 21.1591 25.0676C21.231 25.0807 21.3045 25.0904 21.3809 25.0961C21.4579 25.1035 21.5383 25.1081 21.6209 25.1081C21.6369 25.1081 21.6489 25.1121 21.6586 25.1189C21.6677 25.1252 21.6751 25.1337 21.6774 25.1491C21.6797 25.2786 21.5611 25.3242 21.4328 25.3327C21.357 25.3339 21.2817 25.3316 21.2047 25.3293C20.9789 25.323 20.7549 25.3054 20.5291 25.2689C20.5052 25.2666 20.4846 25.2609 20.4618 25.2512C20.4402 25.2415 20.4213 25.2284 20.3985 25.213C20.329 25.1657 20.2554 25.1121 20.1813 25.0522C20.1066 24.9918 20.0359 24.9296 19.9675 24.8686C19.8968 24.8059 19.8318 24.7483 19.7754 24.6953C19.7201 24.644 19.6762 24.5995 19.6448 24.5682C19.6123 24.5396 19.5872 24.5157 19.5656 24.4929C19.545 24.4712 19.5274 24.4496 19.5125 24.433C19.4852 24.3994 19.4732 24.3766 19.4578 24.3549C19.4492 24.3441 19.4407 24.3344 19.431 24.3247C19.4014 24.2933 19.3529 24.2597 19.244 24.201C19.2309 24.1953 19.2223 24.1901 19.2212 24.1822C19.22 24.177 19.22 24.1736 19.2246 24.1673C19.2286 24.1616 19.232 24.1542 19.2389 24.1485C19.2508 24.1388 19.2657 24.1314 19.2776 24.1257C19.2885 24.1194 19.2993 24.1137 19.3113 24.1109C19.3232 24.1075 19.3352 24.1041 19.3483 24.1029Z" fill="#FDBE11"/>
</g>
<defs>
<clipPath id="clip0_4_7909">
<rect width="48" height="48" fill="white"/>
</clipPath>
</defs>
</svg>
